<svg xmlns="http://www.w3.org/2000/svg" width="846" height="90" viewBox="0 0 846 90" role="img" aria-label="23ag.one — AI Products, Interfaces and the Systems Behind Them"><g fill="#1A1A17"><path d="M30.9970703125 0.271484375H32.439453125V2.0078125H30.9970703125Z" fill-opacity="0.22"/><path d="M39.9970703125 0.271484375H41.439453125V2.0078125H39.9970703125Z" fill-opacity="0.22"/><path d="M48.9970703125 0.271484375H50.439453125V2.0078125H48.9970703125Z" fill-opacity="0.22"/><path d="M57.9970703125 0.271484375H59.439453125V2.0078125H57.9970703125Z" fill-opacity="0.22"/><path d="M66.9970703125 0.271484375H68.439453125V2.0078125H66.9970703125Z" fill-opacity="0.22"/><path d="M75.9970703125 0.271484375H77.439453125V2.0078125H75.9970703125Z" fill-opacity="0.22"/><path d="M84.9970703125 0.271484375H86.439453125V2.0078125H84.9970703125Z" fill-opacity="0.22"/><path d="M93.9970703125 0.271484375H95.439453125V2.0078125H93.9970703125Z" fill-opacity="0.22"/><path d="M102.9970703125 0.271484375H104.439453125V2.0078125H102.9970703125Z" fill-opacity="0.22"/><path d="M111.9970703125 0.271484375H113.439453125V2.0078125H111.9970703125Z" fill-opacity="0.22"/><path d="M120.9970703125 0.271484375H122.439453125V2.0078125H120.9970703125Z" fill-opacity="0.22"/><path d="M129.9970703125 0.271484375H131.439453125V2.0078125H129.9970703125Z" fill-opacity="0.22"/><path d="M138.9970703125 0.271484375H140.439453125V2.0078125H138.9970703125Z" fill-opacity="0.22"/><path d="M147.9970703125 0.271484375H149.439453125V2.0078125H147.9970703125Z" fill-opacity="0.22"/><path d="M156.9970703125 0.271484375H158.439453125V2.0078125H156.9970703125Z" fill-opacity="0.22"/><path d="M165.9970703125 0.271484375H167.439453125V2.0078125H165.9970703125Z" fill-opacity="0.22"/><path d="M174.9970703125 0.271484375H176.439453125V2.0078125H174.9970703125Z" fill-opacity="0.22"/><path d="M183.9970703125 0.271484375H185.439453125V2.0078125H183.9970703125Z" fill-opacity="0.22"/><path d="M192.9970703125 0.271484375H194.439453125V2.0078125H192.9970703125Z" fill-opacity="0.22"/><path d="M201.9970703125 0.271484375H203.439453125V2.0078125H201.9970703125Z" fill-opacity="0.22"/><path d="M210.9970703125 0.271484375H212.439453125V2.0078125H210.9970703125Z" fill-opacity="0.22"/><path d="M219.9970703125 0.271484375H221.439453125V2.0078125H219.9970703125Z" fill-opacity="0.22"/><path d="M228.9970703125 0.271484375H230.439453125V2.0078125H228.9970703125Z" fill-opacity="0.22"/><path d="M237.9970703125 0.271484375H239.439453125V2.0078125H237.9970703125Z" fill-opacity="0.22"/><path d="M246.9970703125 0.271484375H248.439453125V2.0078125H246.9970703125Z" fill-opacity="0.22"/><path d="M255.9970703125 0.271484375H257.439453125V2.0078125H255.9970703125Z" fill-opacity="0.22"/><path d="M264.9970703125 0.271484375H266.439453125V2.0078125H264.9970703125Z" fill-opacity="0.22"/><path d="M273.9970703125 0.271484375H275.439453125V2.0078125H273.9970703125Z" fill-opacity="0.22"/><path d="M282.9970703125 0.271484375H284.439453125V2.0078125H282.9970703125Z" fill-opacity="0.22"/><path d="M291.9970703125 0.271484375H293.439453125V2.0078125H291.9970703125Z" fill-opacity="0.22"/><path d="M300.9970703125 0.271484375H302.439453125V2.0078125H300.9970703125Z" fill-opacity="0.22"/><path d="M309.9970703125 0.271484375H311.439453125V2.0078125H309.9970703125Z" fill-opacity="0.22"/><path d="M318.9970703125 0.271484375H320.439453125V2.0078125H318.9970703125Z" fill-opacity="0.22"/><path d="M327.9970703125 0.271484375H329.439453125V2.0078125H327.9970703125Z" fill-opacity="0.22"/><path d="M336.9970703125 0.271484375H338.439453125V2.0078125H336.9970703125Z" fill-opacity="0.22"/><path d="M345.9970703125 0.271484375H347.439453125V2.0078125H345.9970703125Z" fill-opacity="0.22"/><path d="M354.9970703125 0.271484375H356.439453125V2.0078125H354.9970703125Z" fill-opacity="0.22"/><path d="M363.9970703125 0.271484375H365.439453125V2.0078125H363.9970703125Z" fill-opacity="0.22"/><path d="M372.9970703125 0.271484375H374.439453125V2.0078125H372.9970703125Z" fill-opacity="0.22"/><path d="M381.9970703125 0.271484375H383.439453125V2.0078125H381.9970703125Z" fill-opacity="0.22"/><path d="M390.9970703125 0.271484375H392.439453125V2.0078125H390.9970703125Z" fill-opacity="0.22"/><path d="M399.9970703125 0.271484375H401.439453125V2.0078125H399.9970703125Z" fill-opacity="0.22"/><path d="M408.9970703125 0.271484375H410.439453125V2.0078125H408.9970703125Z" fill-opacity="0.22"/><path d="M417.9970703125 0.271484375H419.439453125V2.0078125H417.9970703125Z" fill-opacity="0.22"/><path d="M426.9970703125 0.271484375H428.439453125V2.0078125H426.9970703125Z" fill-opacity="0.22"/><path d="M435.9970703125 0.271484375H437.439453125V2.0078125H435.9970703125Z" fill-opacity="0.22"/><path d="M444.9970703125 0.271484375H446.439453125V2.0078125H444.9970703125Z" fill-opacity="0.22"/><path d="M453.9970703125 0.271484375H455.439453125V2.0078125H453.9970703125Z" fill-opacity="0.22"/><path d="M462.9970703125 0.271484375H464.439453125V2.0078125H462.9970703125Z" fill-opacity="0.22"/><path d="M471.9970703125 0.271484375H473.439453125V2.0078125H471.9970703125Z" fill-opacity="0.22"/><path d="M480.9970703125 0.271484375H482.439453125V2.0078125H480.9970703125Z" fill-opacity="0.22"/><path d="M489.9970703125 0.271484375H491.439453125V2.0078125H489.9970703125Z" fill-opacity="0.22"/><path d="M498.9970703125 0.271484375H500.439453125V2.0078125H498.9970703125Z" fill-opacity="0.22"/><path d="M507.9970703125 0.271484375H509.439453125V2.0078125H507.9970703125Z" fill-opacity="0.22"/><path d="M516.9970703125 0.271484375H518.439453125V2.0078125H516.9970703125Z" fill-opacity="0.22"/><path d="M525.9970703125 0.271484375H527.439453125V2.0078125H525.9970703125Z" fill-opacity="0.22"/><path d="M534.9970703125 0.271484375H536.439453125V2.0078125H534.9970703125Z" fill-opacity="0.22"/><path d="M543.9970703125 0.271484375H545.439453125V2.0078125H543.9970703125Z" fill-opacity="0.22"/><path d="M552.9970703125 0.271484375H554.439453125V2.0078125H552.9970703125Z" fill-opacity="0.22"/><path d="M561.9970703125 0.271484375H563.439453125V2.0078125H561.9970703125Z" fill-opacity="0.22"/><path d="M570.9970703125 0.271484375H572.439453125V2.0078125H570.9970703125Z" fill-opacity="0.22"/><path d="M579.9970703125 0.271484375H581.439453125V2.0078125H579.9970703125Z" fill-opacity="0.22"/><path d="M588.9970703125 0.271484375H590.439453125V2.0078125H588.9970703125Z" fill-opacity="0.22"/><path d="M597.9970703125 0.271484375H599.439453125V2.0078125H597.9970703125Z" fill-opacity="0.22"/><path d="M606.9970703125 0.271484375H608.439453125V2.0078125H606.9970703125Z" fill-opacity="0.22"/><path d="M615.9970703125 0.271484375H617.439453125V2.0078125H615.9970703125Z" fill-opacity="0.22"/><path d="M624.9970703125 0.271484375H626.439453125V2.0078125H624.9970703125Z" fill-opacity="0.22"/><path d="M633.9970703125 0.271484375H635.439453125V2.0078125H633.9970703125Z" fill-opacity="0.22"/><path d="M642.9970703125 0.271484375H644.439453125V2.0078125H642.9970703125Z" fill-opacity="0.22"/><path d="M651.9970703125 0.271484375H653.439453125V2.0078125H651.9970703125Z" fill-opacity="0.22"/><path d="M660.9970703125 0.271484375H662.439453125V2.0078125H660.9970703125Z" fill-opacity="0.22"/><path d="M669.9970703125 0.271484375H671.439453125V2.0078125H669.9970703125Z" fill-opacity="0.22"/><path d="M678.9970703125 0.271484375H680.439453125V2.0078125H678.9970703125Z" fill-opacity="0.22"/><path d="M687.9970703125 0.271484375H689.439453125V2.0078125H687.9970703125Z" fill-opacity="0.22"/><path d="M696.9970703125 0.271484375H698.439453125V2.0078125H696.9970703125Z" fill-opacity="0.22"/><path d="M705.9970703125 0.271484375H707.439453125V2.0078125H705.9970703125Z" fill-opacity="0.22"/><path d="M714.9970703125 0.271484375H716.439453125V2.0078125H714.9970703125Z" fill-opacity="0.22"/><path d="M723.9970703125 0.271484375H725.439453125V2.0078125H723.9970703125Z" fill-opacity="0.22"/><path d="M732.9970703125 0.271484375H734.439453125V2.0078125H732.9970703125Z" fill-opacity="0.22"/><path d="M741.9970703125 0.271484375H743.439453125V2.0078125H741.9970703125Z" fill-opacity="0.22"/><path d="M750.9970703125 0.271484375H752.439453125V2.0078125H750.9970703125Z" fill-opacity="0.22"/><path d="M759.9970703125 0.271484375H761.439453125V2.0078125H759.9970703125Z" fill-opacity="0.22"/><path d="M768.9970703125 0.271484375H770.439453125V2.0078125H768.9970703125Z" fill-opacity="0.22"/><path d="M777.9970703125 0.271484375H779.439453125V2.0078125H777.9970703125Z" fill-opacity="0.22"/><path d="M786.9970703125 0.271484375H788.439453125V2.0078125H786.9970703125Z" fill-opacity="0.22"/><path d="M795.9970703125 0.271484375H797.439453125V2.0078125H795.9970703125Z" fill-opacity="0.22"/><path d="M804.9970703125 0.271484375H806.439453125V2.0078125H804.9970703125Z" fill-opacity="0.22"/><path d="M813.9970703125 0.271484375H815.439453125V2.0078125H813.9970703125Z" fill-opacity="0.22"/><path d="M33.9375 43.2H24.5859375V42.9421875Q28.88671875 37.82109375 29.806640625 36.0515625Q30.7265625 34.28203125 30.7265625 32.59453125Q30.7265625 31.364062500000003 29.96484375 30.549609375000003Q29.203125 29.735156250000003 28.1015625 29.735156250000003Q26.296875 29.735156250000003 25.30078125 31.539843750000003L24.8671875 31.387500000000003Q25.5 29.137500000000003 26.7890625 28.059375000000003Q28.078125 26.981250000000003 29.765625 26.981250000000003Q30.97265625 26.981250000000003 31.96875 27.543750000000003Q32.96484375 28.106250000000003 33.52734375 29.084765625000003Q34.08984375 30.063281250000003 34.08984375 30.918750000000003Q34.08984375 32.47734375 33.22265625 34.0828125Q32.0390625 36.25078125 28.0546875 40.1296875H31.48828125Q32.75390625 40.1296875 33.134765625 40.02421875Q33.515625 39.91875 33.76171875 39.666796875Q34.0078125 39.41484375 34.40625 38.60625H34.828125ZM39.31078125 35.23125V34.82109375Q40.64671875 34.434375 41.16234375 34.100390625Q41.67796875 33.76640625 42.05296875 33.080859375Q42.42796875 32.3953125 42.42796875 31.692187500000003Q42.42796875 30.719531250000003 41.718984375 30.022265625000003Q41.01 29.325000000000003 39.9553125 29.325000000000003Q38.3146875 29.325000000000003 37.16625 31.059375000000003L36.73265625 30.907031250000003Q37.57640625 28.950000000000003 38.894765625 27.965625000000003Q40.213125 26.981250000000003 41.8303125 26.981250000000003Q43.48265625 26.981250000000003 44.554921875 27.989062500000003Q45.6271875 28.996875000000003 45.6271875 30.344531250000003Q45.6271875 31.223437500000003 45.129140625 32.037890625Q44.63109375 32.85234375 43.5646875 33.4734375Q44.93578125 34.14140625 45.656484375 35.119921875Q46.3771875 36.0984375 46.3771875 37.575Q46.3771875 40.059375 44.578359375 41.799609375Q42.77953125 43.53984375 39.75609375 43.53984375Q37.74046875 43.53984375 36.8146875 42.871875Q36.14671875 42.403125 36.14671875 41.66484375Q36.14671875 41.12578125 36.5334375 40.744921875Q36.92015625 40.3640625 37.4240625 40.3640625Q37.81078125 40.3640625 38.150625 40.528125Q38.338125 40.621875 39.480703125 41.553515625Q40.62328125 42.48515625 41.619375 42.48515625Q42.4865625 42.48515625 43.10765625 41.799609375Q43.72875 41.1140625 43.72875 40.059375Q43.72875 38.45390625 42.60375 37.100390625Q41.47875 35.746875 39.31078125 35.23125ZM54.375468749999996 41.5828125Q52.371562499999996 43.35234375 50.777812499999996 43.35234375Q49.840312499999996 43.35234375 49.219218749999996 42.737109375Q48.598124999999996 42.121875 48.598124999999996 41.19609375Q48.598124999999996 39.9421875 49.676249999999996 38.940234375Q50.754374999999996 37.93828125 54.375468749999996 36.27421875V35.17265625Q54.375468749999996 33.93046875 54.240703124999996 33.608203125Q54.105937499999996 33.2859375 53.730937499999996 33.045703125Q53.355937499999996 32.80546875 52.887187499999996 32.80546875Q52.125468749999996 32.80546875 51.633281249999996 33.1453125Q51.328593749999996 33.35625 51.328593749999996 33.6375Q51.328593749999996 33.88359375 51.656718749999996 34.246875Q52.102031249999996 34.75078125 52.102031249999996 35.21953125Q52.102031249999996 35.79375 51.674296874999996 36.198046875Q51.246562499999996 36.60234375 50.555156249999996 36.60234375Q49.816874999999996 36.60234375 49.318828124999996 36.15703125Q48.820781249999996 35.71171875 48.820781249999996 35.1140625Q48.820781249999996 34.2703125 49.488749999999996 33.502734375Q50.156718749999996 32.73515625 51.352031249999996 32.325Q52.547343749999996 31.914843750000003 53.836406249999996 31.914843750000003Q55.394999999999996 31.914843750000003 56.303203124999996 32.576953125Q57.211406249999996 33.2390625 57.480937499999996 34.0125Q57.644999999999996 34.5046875 57.644999999999996 36.27421875V40.528125Q57.644999999999996 41.278125 57.703593749999996 41.471484375Q57.762187499999996 41.66484375 57.879374999999996 41.75859375Q57.996562499999996 41.85234375 58.148906249999996 41.85234375Q58.453593749999996 41.85234375 58.769999999999996 41.41875L59.121562499999996 41.7Q58.535624999999996 42.5671875 57.908671874999996 42.959765625Q57.281718749999996 43.35234375 56.484843749999996 43.35234375Q55.547343749999996 43.35234375 55.019999999999996 42.912890625Q54.492656249999996 42.4734375 54.375468749999996 41.5828125ZM54.375468749999996 40.72734375V37.059375Q52.957499999999996 37.89140625 52.266093749999996 38.840625Q51.809062499999996 39.4734375 51.809062499999996 40.11796875Q51.809062499999996 40.65703125 52.195781249999996 41.0671875Q52.488749999999996 41.38359375 53.016093749999996 41.38359375Q53.602031249999996 41.38359375 54.375468749999996 40.72734375ZM67.11984375 32.371875H70.81125V33.6609375H68.71359375Q69.2878125 34.23515625 69.51046875 34.70390625Q69.79171875 35.33671875 69.79171875 36.028125Q69.79171875 37.2 69.141328125 38.061328125Q68.4909375 38.92265625 67.371796875 39.408984375Q66.25265625 39.8953125 65.38546875 39.8953125Q65.31515625 39.8953125 63.979218749999994 39.83671875Q63.451874999999994 39.83671875 63.094453124999994 40.182421875Q62.737031249999994 40.528125 62.737031249999994 41.00859375Q62.737031249999994 41.43046875 63.059296874999994 41.7Q63.381562499999994 41.96953125 64.108125 41.96953125L66.13546875 41.94609375Q68.59640625 41.94609375 69.5221875 42.48515625Q70.84640625 43.23515625 70.84640625 44.79375Q70.84640625 45.78984375 70.23703125 46.604296875Q69.62765625 47.41875 68.6315625 47.80546875Q67.11984375 48.3796875 65.15109375 48.3796875Q63.674531249999994 48.3796875 62.455781249999994 48.092578125Q61.237031249999994 47.80546875 60.709687499999994 47.295703125Q60.182343749999994 46.7859375 60.182343749999994 46.2234375Q60.182343749999994 45.684375 60.586640624999994 45.256640625Q60.990937499999994 44.82890625 62.092499999999994 44.5359375Q60.569062499999994 43.7859375 60.569062499999994 42.45Q60.569062499999994 41.64140625 61.190156249999994 40.8796875Q61.811249999999994 40.11796875 63.158906249999994 39.55546875Q61.588593749999994 38.98125 60.885468749999994 38.04375Q60.182343749999994 37.10625 60.182343749999994 35.87578125Q60.182343749999994 34.2703125 61.494843749999994 33.092578125Q62.807343749999994 31.914843750000003 64.86984375 31.914843750000003Q65.9596875 31.914843750000003 67.11984375 32.371875ZM65.0925 32.64140625Q64.4128125 32.64140625 63.9440625 33.326953125Q63.475312499999994 34.0125 63.475312499999994 36.16875Q63.475312499999994 37.91484375 63.938203125 38.565234375Q64.40109375 39.215625 65.03390625 39.215625Q65.73703125 39.215625 66.20578125 38.57109375Q66.67453125 37.9265625 66.67453125 36.06328125Q66.67453125 33.965625 66.1471875 33.20390625Q65.7721875 32.64140625 65.0925 32.64140625ZM64.40109375 44.8171875Q63.205781249999994 44.8171875 62.819062499999994 45.01640625Q62.151093749999994 45.3796875 62.151093749999994 46.00078125Q62.151093749999994 46.5984375 62.842499999999994 47.084765625Q63.533906249999994 47.57109375 65.4440625 47.57109375Q67.07296875 47.57109375 68.004609375 47.1375Q68.93625 46.70390625 68.93625 45.91875Q68.93625 45.62578125 68.76046875 45.4265625Q68.4440625 45.075 67.805390625 44.94609375Q67.16671875 44.8171875 64.40109375 44.8171875ZM74.03999999999999 39.590625Q74.86031249999999 39.590625 75.42867187499999 40.16484375Q75.99703124999999 40.7390625 75.99703124999999 41.54765625Q75.99703124999999 42.35625 75.42281249999999 42.924609375Q74.84859374999999 43.49296875 74.03999999999999 43.49296875Q73.23140624999999 43.49296875 72.66304687499999 42.924609375Q72.09468749999999 42.35625 72.09468749999999 41.54765625Q72.09468749999999 40.7390625 72.66304687499999 40.16484375Q73.23140624999999 39.590625 74.03999999999999 39.590625ZM82.7765625 31.914843750000003Q84.20625 31.914843750000003 85.43671875 32.653125Q86.6671875 33.39140625 87.305859375 34.75078125Q87.94453125 36.11015625 87.94453125 37.72734375Q87.94453125 40.059375 86.7609375 41.6296875Q85.33125 43.528125 82.81171875 43.528125Q80.3390625 43.528125 79.003125 41.79375Q77.6671875 40.059375 77.6671875 37.77421875Q77.6671875 35.41875 79.032421875 33.666796875Q80.39765625 31.914843750000003 82.7765625 31.914843750000003ZM82.8234375 32.746875Q82.22578125 32.746875 81.798046875 33.198046875Q81.3703125 33.64921875 81.235546875 34.979296875Q81.10078125 36.309375 81.10078125 38.6765625Q81.10078125 39.93046875 81.26484375 41.0203125Q81.39375 41.85234375 81.815625 42.2859375Q82.2375 42.71953125 82.7765625 42.71953125Q83.30390625 42.71953125 83.65546875 42.4265625Q84.1125 42.028125 84.26484375 41.31328125Q84.49921875 40.2 84.49921875 36.81328125Q84.49921875 34.82109375 84.2765625 34.076953125Q84.05390625 33.3328125 83.6203125 32.99296875Q83.315625 32.746875 82.8234375 32.746875ZM93.84515625 32.24296875V33.6609375Q94.68890625 32.746875 95.46234375 32.330859375Q96.23578125 31.914843750000003 97.12640625 31.914843750000003Q98.1928125 31.914843750000003 98.8959375 32.506640625Q99.5990625 33.0984375 99.8334375 33.97734375Q100.0209375 34.6453125 100.0209375 36.54375V40.809375Q100.0209375 42.075 100.249453125 42.385546875Q100.47796875 42.69609375 101.20453125 42.778125V43.2H95.6615625V42.778125Q96.28265625 42.69609375 96.5521875 42.2625Q96.7396875 41.96953125 96.7396875 40.809375V35.934375Q96.7396875 34.58671875 96.63421875 34.23515625Q96.52875 33.88359375 96.276796875 33.690234375Q96.02484375 33.496875 95.72015625 33.496875Q94.71234375 33.496875 93.84515625 34.93828125V40.809375Q93.84515625 42.03984375 94.073671875 42.36796875Q94.3021875 42.69609375 94.92328125 42.778125V43.2H89.3803125V42.778125Q90.07171875 42.7078125 90.3646875 42.3328125Q90.56390625 42.075 90.56390625 40.809375V34.621875Q90.56390625 33.3796875 90.335390625 33.075Q90.106875 32.7703125 89.3803125 32.6765625V32.24296875ZM111.75750000000001 37.32890625H105.74578125000001Q105.85125000000001 39.50859375 106.90593750000001 40.77421875Q107.71453125000001 41.746875 108.85125000000001 41.746875Q109.55437500000001 41.746875 110.12859375000001 41.354296875Q110.70281250000001 40.96171875 111.35906250000001 39.9421875L111.75750000000001 40.2Q110.86687500000001 42.01640625 109.78875000000001 42.772265625Q108.71062500000001 43.528125 107.29265625000001 43.528125Q104.85515625000001 43.528125 103.60125000000001 41.653125Q102.59343750000001 40.14140625 102.59343750000001 37.903125Q102.59343750000001 35.1609375 104.07585937500001 33.537890625Q105.55828125000001 31.914843750000003 107.55046875000001 31.914843750000003Q109.21453125000001 31.914843750000003 110.43914062500001 33.280078125Q111.66375000000001 34.6453125 111.75750000000001 37.32890625ZM108.87468750000001 36.54375Q108.87468750000001 34.65703125 108.66960937500001 33.95390625Q108.46453125000001 33.25078125 108.03093750000001 32.8875Q107.78484375000001 32.6765625 107.37468750000001 32.6765625Q106.76531250000001 32.6765625 106.37859375000001 33.27421875Q105.68718750000001 34.3171875 105.68718750000001 36.13359375V36.54375Z"/><rect x="24.0" y="47.2" width="90.0" height="2.29"/><path d="M817.185546875 34.6453125Q818.484375 36.061328125 819.431640625 36.7986328125Q820.37890625 37.5359375 821.21875 37.897265625V38.33671875Q820.251953125 38.80546875 819.34375 39.5330078125Q818.435546875 40.260546875 817.17578125 41.666796875H816.423828125Q817.341796875 39.70390625 818.34765625 38.64921875H802.771484375V37.662890625H818.34765625Q817.60546875 36.715625 817.3125 36.256640625Q817.01953125 35.79765625 816.443359375 34.6453125Z" fill-opacity="0.35"/><path d="M31.457568359375 67.88662109375H27.2791015625L26.546875 69.58984375Q26.27626953125 70.218603515625 26.27626953125 70.52900390625Q26.27626953125 70.775732421875 26.5110595703125 70.9627685546875Q26.745849609375 71.1498046875 27.525830078125 71.205517578125V71.5H24.12734375V71.205517578125Q24.803857421875 71.0861328125 25.00283203125 70.8951171875Q25.408740234375 70.5130859375 25.902197265625 69.343115234375L29.6986328125 60.460888671875H29.977197265625L33.733837890625 69.438623046875Q34.1875 70.521044921875 34.5575927734375 70.8433837890625Q34.927685546875 71.16572265625 35.58828125 71.205517578125V71.5H31.330224609375V71.205517578125Q31.97490234375 71.173681640625 32.2017333984375 70.990625Q32.428564453125 70.807568359375 32.428564453125 70.544921875Q32.428564453125 70.1947265625 32.110205078125 69.438623046875ZM31.234716796875 67.29765625 29.404150390625 62.9361328125 27.525830078125 67.29765625ZM40.801416015625 71.205517578125V71.5H36.17724609375V71.205517578125H36.55927734375Q37.227832031249996 71.205517578125 37.5302734375 70.81552734375Q37.7212890625 70.56083984375 37.7212890625 69.58984375V62.6177734375Q37.7212890625 61.797998046875 37.617822265625 61.5353515625Q37.538232421875 61.336376953125 37.29150390625 61.193115234375Q36.94130859375 61.002099609375 36.55927734375 61.002099609375H36.17724609375V60.7076171875H40.801416015625V61.002099609375H40.411425781249996Q39.750830078125 61.002099609375 39.448388671875 61.39208984375Q39.2494140625 61.64677734375 39.2494140625 62.6177734375V69.58984375Q39.2494140625 70.409619140625 39.352880859375 70.672265625Q39.432470703125 70.871240234375 39.687158203125 71.014501953125Q40.02939453125 71.205517578125 40.411425781249996 71.205517578125ZM48.617138671875004 66.446044921875V69.58984375Q48.617138671875004 70.60859375 48.839990234375 70.855322265625Q49.142431640625006 71.205517578125 49.7552734375 71.205517578125H50.169140625000004V71.5H45.544970703125V71.205517578125H45.950878906250004Q46.635351562500006 71.205517578125 46.929833984375 70.759814453125Q47.089013671875 70.5130859375 47.089013671875 69.58984375V62.6177734375Q47.089013671875 61.5990234375 46.874121093750006 61.352294921875Q46.56372070312501 61.002099609375 45.950878906250004 61.002099609375H45.544970703125V60.7076171875H49.500585937500006Q50.94912109375 60.7076171875 51.78481445312501 61.0060791015625Q52.62050781250001 61.304541015625 53.19355468750001 62.012890625Q53.76660156250001 62.721240234375 53.76660156250001 63.692236328125Q53.76660156250001 65.013427734375 52.89509277343751 65.841162109375Q52.02358398437501 66.668896484375 50.431787109375 66.668896484375Q50.041796875 66.668896484375 49.588134765625 66.61318359375Q49.134472656250004 66.557470703125 48.617138671875004 66.446044921875ZM48.617138671875004 65.9923828125Q49.03896484375 66.07197265625 49.365283203125 66.111767578125Q49.691601562500004 66.1515625 49.922412109375 66.1515625Q50.750146484375 66.1515625 51.351049804687506 65.5108642578125Q51.951953125 64.870166015625 51.951953125 63.851416015625Q51.951953125 63.151025390625 51.66542968750001 62.5501220703125Q51.37890625000001 61.94921875 50.853613281250006 61.6507568359375Q50.328320312500004 61.352294921875 49.659765625000006 61.352294921875Q49.253857421875004 61.352294921875 48.617138671875004 61.503515625ZM56.982031250000006 63.994677734375V65.634228515625Q57.897314453125006 63.994677734375 58.8603515625 63.994677734375Q59.298095703125 63.994677734375 59.584619140625 64.26130371093751Q59.871142578125 64.5279296875 59.871142578125 64.878125Q59.871142578125 65.188525390625 59.664208984375 65.40341796875Q59.457275390625 65.618310546875 59.170751953125006 65.618310546875Q58.892187500000006 65.618310546875 58.545971679687504 65.3437255859375Q58.199755859375 65.069140625 58.0326171875 65.069140625Q57.889355468750004 65.069140625 57.722216796875 65.2283203125Q57.3640625 65.554638671875 56.982031250000006 66.302783203125V69.79677734375Q56.982031250000006 70.40166015625 57.133251953125004 70.712060546875Q57.23671875 70.926953125 57.499365234375006 71.07021484375Q57.76201171875 71.2134765625 58.255468750000006 71.2134765625V71.5H54.522705078125V71.2134765625Q55.079833984375 71.2134765625 55.350439453125006 71.03837890625Q55.549414062500006 70.91103515625 55.629003906250006 70.632470703125Q55.668798828125006 70.49716796875 55.668798828125006 69.86044921875V67.035009765625Q55.668798828125006 65.761572265625 55.6170654296875 65.5188232421875Q55.56533203125 65.27607421875 55.4260498046875 65.1646484375Q55.286767578125 65.05322265625 55.079833984375 65.05322265625Q54.833105468750006 65.05322265625 54.522705078125 65.172607421875L54.443115234375 64.886083984375L56.64775390625 63.994677734375ZM63.84267578125001 63.994677734375Q65.49814453125 63.994677734375 66.5009765625 65.252197265625Q67.352587890625 66.32666015625 67.352587890625 67.719482421875Q67.352587890625 68.6984375 66.88300781250001 69.70126953125Q66.413427734375 70.7041015625 65.58967285156251 71.2134765625Q64.76591796875 71.7228515625 63.75512695312501 71.7228515625Q62.107617187500004 71.7228515625 61.13662109375001 70.409619140625Q60.316845703125004 69.3033203125 60.316845703125004 67.926416015625Q60.316845703125004 66.923583984375 60.814282226562504 65.9326904296875Q61.311718750000004 64.941796875 62.12353515625 64.4682373046875Q62.9353515625 63.994677734375 63.84267578125001 63.994677734375ZM63.59594726562501 64.51201171875Q63.17412109375 64.51201171875 62.74831542968751 64.7627197265625Q62.32250976562501 65.013427734375 62.05986328125 65.6421875Q61.797216796875006 66.270947265625 61.797216796875006 67.257861328125Q61.797216796875006 68.849658203125 62.42995605468751 70.0037109375Q63.062695312500004 71.157763671875 64.09736328125001 71.157763671875Q64.869384765625 71.157763671875 65.37080078125001 70.521044921875Q65.87221679687501 69.884326171875 65.87221679687501 68.33232421875Q65.87221679687501 66.39033203125 65.03652343750001 65.27607421875Q64.471435546875 64.51201171875 63.59594726562501 64.51201171875ZM73.576513671875 70.680224609375Q73.04326171875002 71.237353515625 72.53388671875001 71.4801025390625Q72.02451171875 71.7228515625 71.43554687500001 71.7228515625Q70.24169921875001 71.7228515625 69.35029296875001 70.7239990234375Q68.45888671875001 69.725146484375 68.45888671875001 68.1572265625Q68.45888671875001 66.589306640625 69.44580078125 65.2880126953125Q70.43271484375 63.98671875 71.984716796875 63.98671875Q72.94775390625001 63.98671875 73.576513671875 64.599560546875V63.2544921875Q73.576513671875 62.004931640625 73.5168212890625 61.718408203125Q73.45712890625 61.431884765625 73.32978515625001 61.32841796875Q73.20244140625002 61.224951171875 73.01142578125001 61.224951171875Q72.80449218750002 61.224951171875 72.462255859375 61.352294921875L72.35878906250001 61.07373046875L74.531591796875 60.18232421875H74.88974609375V68.610888671875Q74.88974609375 69.89228515625 74.9494384765625 70.1748291015625Q75.009130859375 70.457373046875 75.14045410156251 70.56879882812501Q75.27177734375002 70.680224609375 75.446875 70.680224609375Q75.66176757812501 70.680224609375 76.01992187500001 70.544921875L76.10747070312502 70.823486328125L73.94262695312501 71.7228515625H73.576513671875ZM73.576513671875 70.123095703125V66.366455078125Q73.52875976562501 65.825244140625 73.28999023437501 65.379541015625Q73.05122070312501 64.933837890625 72.65725097656251 64.7070068359375Q72.26328125 64.48017578125 71.88920898437502 64.48017578125Q71.188818359375 64.48017578125 70.63964843750001 65.108935546875Q69.915380859375 65.936669921875 69.915380859375 67.528466796875Q69.915380859375 69.136181640625 70.61577148437502 69.9917724609375Q71.31616210937501 70.84736328125 72.17573242187501 70.84736328125Q72.9 70.84736328125 73.576513671875 70.123095703125ZM82.96811523437502 64.2095703125V68.626806640625Q82.96811523437502 69.89228515625 83.02780761718752 70.1748291015625Q83.08750000000002 70.457373046875 83.21882324218751 70.56879882812501Q83.35014648437502 70.680224609375 83.52524414062502 70.680224609375Q83.77197265625001 70.680224609375 84.08237304687502 70.544921875L84.19379882812501 70.823486328125L82.01303710937502 71.7228515625H81.65488281250002V70.17880859375Q80.71572265625002 71.19755859375 80.22226562500002 71.460205078125Q79.72880859375002 71.7228515625 79.17963867187501 71.7228515625Q78.56679687500002 71.7228515625 78.11711425781252 71.3686767578125Q77.66743164062501 71.014501953125 77.49233398437502 70.457373046875Q77.31723632812502 69.900244140625 77.31723632812502 68.881494140625V65.62626953125Q77.31723632812502 65.108935546875 77.20581054687503 64.9099609375Q77.09438476562502 64.710986328125 76.87551269531252 64.6035400390625Q76.65664062500002 64.49609375 76.08359375000002 64.504052734375V64.2095703125H78.63842773437501V69.088427734375Q78.63842773437501 70.107177734375 78.99260253906252 70.425537109375Q79.34677734375002 70.743896484375 79.84819335937502 70.743896484375Q80.19042968750001 70.743896484375 80.62419433593752 70.52900390625Q81.05795898437502 70.314111328125 81.65488281250002 69.709228515625V65.578515625Q81.65488281250002 64.95771484375 81.42805175781251 64.7388427734375Q81.20122070312502 64.519970703125 80.48491210937502 64.504052734375V64.2095703125ZM90.91914062500003 68.7302734375Q90.62465820312502 70.170849609375 89.76508789062503 70.9468505859375Q88.90551757812503 71.7228515625 87.86289062500002 71.7228515625Q86.62128906250003 71.7228515625 85.69804687500002 70.68022460937499Q84.77480468750002 69.63759765625 84.77480468750002 67.862744140625Q84.77480468750002 66.143603515625 85.79753417968752 65.069140625Q86.82026367187503 63.994677734375 88.25288085937503 63.994677734375Q89.32734375000003 63.994677734375 90.01977539062503 64.5637451171875Q90.71220703125002 65.1328125 90.71220703125002 65.745654296875Q90.71220703125002 66.048095703125 90.51721191406253 66.2351318359375Q90.32221679687503 66.42216796875 89.97202148437502 66.42216796875Q89.50244140625003 66.42216796875 89.26367187500003 66.1197265625Q89.12836914062503 65.952587890625 89.08459472656253 65.4830078125Q89.04082031250002 65.013427734375 88.76225585937502 64.76669921875Q88.48369140625002 64.5279296875 87.99023437500003 64.5279296875Q87.19433593750003 64.5279296875 86.70883789062502 65.11689453125Q86.06416015625003 65.896875 86.06416015625003 67.178271484375Q86.06416015625003 68.483544921875 86.70485839843752 69.4823974609375Q87.34555664062502 70.48125 88.43593750000002 70.48125Q89.21591796875002 70.48125 89.83671875000002 69.947998046875Q90.27446289062502 69.581884765625 90.68833007812502 68.61884765625ZM94.07885742187503 61.813916015625V64.2095703125H95.78208007812503V64.76669921875H94.07885742187503V69.4943359375Q94.07885742187503 70.202685546875 94.28181152343753 70.44941406250001Q94.48476562500002 70.696142578125 94.80312500000002 70.696142578125Q95.06577148437503 70.696142578125 95.31250000000003 70.5329833984375Q95.55922851562502 70.36982421875 95.69453125000003 70.05146484375H96.00493164062503Q95.72636718750003 70.8314453125 95.21699218750004 71.2254150390625Q94.70761718750003 71.619384765625 94.16640625000002 71.619384765625Q93.80029296875003 71.619384765625 93.45009765625002 71.4164306640625Q93.09990234375003 71.2134765625 92.93276367187502 70.8354248046875Q92.76562500000003 70.457373046875 92.76562500000003 69.66943359375V64.76669921875H91.61157226562503V64.504052734375Q92.04931640625003 64.328955078125 92.50695800781253 63.911108398437506Q92.96459960937503 63.49326171875 93.32275390625003 62.92021484375Q93.50581054687503 62.6177734375 93.83212890625003 61.813916015625ZM101.20214843750003 63.994677734375V66.477880859375H100.93950195312503Q100.63706054687503 65.30791015625 100.16350097656253 64.886083984375Q99.68994140625003 64.4642578125 98.95771484375004 64.4642578125Q98.40058593750004 64.4642578125 98.05834960937503 64.758740234375Q97.71611328125003 65.05322265625 97.71611328125003 65.411376953125Q97.71611328125003 65.857080078125 97.97080078125003 66.175439453125Q98.21752929687503 66.5017578125 98.97363281250003 66.86787109375L100.13564453125004 67.432958984375Q101.75131835937503 68.2208984375 101.75131835937503 69.51025390625Q101.75131835937503 70.505126953125 100.99919433593753 71.1139892578125Q100.24707031250003 71.7228515625 99.31586914062504 71.7228515625Q98.64731445312503 71.7228515625 97.78774414062504 71.48408203125Q97.52509765625004 71.4044921875 97.35795898437503 71.4044921875Q97.17490234375003 71.4044921875 97.07143554687504 71.61142578125H96.80878906250004V69.008837890625H97.07143554687504Q97.29428710937503 70.123095703125 97.92304687500004 70.68818359375001Q98.55180664062503 71.253271484375 99.33178710937503 71.253271484375Q99.88095703125003 71.253271484375 100.22717285156253 70.9309326171875Q100.57338867187504 70.60859375 100.57338867187504 70.154931640625Q100.57338867187504 69.60576171875 100.18737792968753 69.231689453125Q99.80136718750003 68.8576171875 98.64731445312503 68.2845703125Q97.49326171875003 67.7115234375 97.13510742187503 67.24990234375Q96.77695312500003 66.796240234375 96.77695312500003 66.10380859375Q96.77695312500003 65.204443359375 97.39377441406253 64.59956054687501Q98.01059570312503 63.994677734375 98.98955078125003 63.994677734375Q99.41933593750004 63.994677734375 100.03217773437504 64.177734375Q100.43808593750003 64.297119140625 100.57338867187504 64.297119140625Q100.70073242187503 64.297119140625 100.77236328125002 64.24140625Q100.84399414062503 64.185693359375 100.93950195312503 63.994677734375ZM103.19985351562504 74.214013671875V73.863818359375Q104.01962890625003 73.593212890625 104.46931152343754 73.0241455078125Q104.91899414062503 72.455078125 104.91899414062503 71.818359375Q104.91899414062503 71.667138671875 104.84736328125004 71.563671875Q104.79165039062504 71.492041015625 104.73593750000003 71.492041015625Q104.64838867187504 71.492041015625 104.35390625000004 71.651220703125Q104.21064453125004 71.7228515625 104.05146484375004 71.7228515625Q103.66147460937503 71.7228515625 103.43066406250003 71.492041015625Q103.19985351562504 71.26123046875 103.19985351562504 70.855322265625Q103.19985351562504 70.46533203125 103.49831542968754 70.186767578125Q103.79677734375004 69.908203125 104.22656250000004 69.908203125Q104.75185546875004 69.908203125 105.16174316406253 70.3658447265625Q105.57163085937503 70.823486328125 105.57163085937503 71.57958984375Q105.57163085937503 72.399365234375 105.00256347656253 73.1037353515625Q104.43349609375004 73.80810546875 103.19985351562504 74.214013671875ZM115.50444335937505 71.205517578125V71.5H110.88027343750004V71.205517578125H111.26230468750005Q111.93085937500004 71.205517578125 112.23330078125004 70.81552734375Q112.42431640625004 70.56083984375 112.42431640625004 69.58984375V62.6177734375Q112.42431640625004 61.797998046875 112.32084960937505 61.5353515625Q112.24125976562505 61.336376953125 111.99453125000004 61.193115234375Q111.64433593750005 61.002099609375 111.26230468750005 61.002099609375H110.88027343750004V60.7076171875H115.50444335937505V61.002099609375H115.11445312500004Q114.45385742187504 61.002099609375 114.15141601562505 61.39208984375Q113.95244140625005 61.64677734375 113.95244140625005 62.6177734375V69.58984375Q113.95244140625005 70.409619140625 114.05590820312504 70.672265625Q114.13549804687504 70.871240234375 114.39018554687505 71.014501953125Q114.73242187500004 71.205517578125 115.11445312500004 71.205517578125ZM118.53681640625004 65.538720703125Q119.81821289062505 63.994677734375 120.98022460937504 63.994677734375Q121.57714843750004 63.994677734375 122.00693359375003 64.2931396484375Q122.43671875000004 64.5916015625 122.69140625000004 65.27607421875Q122.86650390625005 65.75361328125 122.86650390625005 66.74052734375V69.852490234375Q122.86650390625005 70.544921875 122.97792968750005 70.791650390625Q123.06547851562505 70.990625 123.26047363281255 71.10205078125Q123.45546875000005 71.2134765625 123.98076171875005 71.2134765625V71.5H120.37534179687505V71.2134765625H120.52656250000004Q121.03593750000005 71.2134765625 121.23889160156254 71.0582763671875Q121.44184570312504 70.903076171875 121.52143554687504 70.600634765625Q121.55327148437505 70.48125 121.55327148437505 69.852490234375V66.86787109375Q121.55327148437505 65.872998046875 121.29460449218755 65.4233154296875Q121.03593750000005 64.9736328125 120.42309570312504 64.9736328125Q119.47597656250005 64.9736328125 118.53681640625004 66.00830078125V69.852490234375Q118.53681640625004 70.59267578125 118.62436523437505 70.7677734375Q118.73579101562504 70.998583984375 118.93078613281254 71.10603027343751Q119.12578125000005 71.2134765625 119.72270507812505 71.2134765625V71.5H116.11728515625005V71.2134765625H116.27646484375005Q116.83359375000005 71.2134765625 117.02858886718755 70.9309326171875Q117.22358398437504 70.648388671875 117.22358398437504 69.852490234375V67.146435546875Q117.22358398437504 65.833203125 117.16389160156254 65.54667968749999Q117.10419921875004 65.26015625 116.98083496093754 65.156689453125Q116.85747070312505 65.05322265625 116.65053710937505 65.05322265625Q116.42768554687504 65.05322265625 116.11728515625005 65.172607421875L115.99790039062505 64.886083984375L118.19458007812504 63.994677734375H118.53681640625004ZM126.67885742187505 61.813916015625V64.2095703125H128.38208007812506V64.76669921875H126.67885742187505V69.4943359375Q126.67885742187505 70.202685546875 126.88181152343755 70.44941406250001Q127.08476562500005 70.696142578125 127.40312500000005 70.696142578125Q127.66577148437506 70.696142578125 127.91250000000005 70.5329833984375Q128.15922851562505 70.36982421875 128.29453125000006 70.05146484375H128.60493164062504Q128.32636718750004 70.8314453125 127.81699218750005 71.2254150390625Q127.30761718750006 71.619384765625 126.76640625000005 71.619384765625Q126.40029296875005 71.619384765625 126.05009765625005 71.4164306640625Q125.69990234375005 71.2134765625 125.53276367187505 70.8354248046875Q125.36562500000005 70.457373046875 125.36562500000005 69.66943359375V64.76669921875H124.21157226562505V64.504052734375Q124.64931640625005 64.328955078125 125.10695800781255 63.911108398437506Q125.56459960937505 63.49326171875 125.92275390625005 62.92021484375Q126.10581054687505 62.6177734375 126.43212890625006 61.813916015625ZM130.31611328125007 66.955419921875Q130.30815429687505 68.579052734375 131.10405273437505 69.502294921875Q131.89995117187505 70.425537109375 132.97441406250005 70.425537109375Q133.69072265625005 70.425537109375 134.21999511718755 70.0315673828125Q134.74926757812506 69.63759765625 135.10742187500006 68.68251953125L135.35415039062505 68.84169921875Q135.18701171875006 69.932080078125 134.38315429687506 70.8274658203125Q133.57929687500007 71.7228515625 132.36953125000005 71.7228515625Q131.05629882812505 71.7228515625 130.12111816406255 70.70012207031249Q129.18593750000005 69.677392578125 129.18593750000005 67.95029296875Q129.18593750000005 66.079931640625 130.14499511718753 65.0333251953125Q131.10405273437505 63.98671875 132.55258789062506 63.98671875Q133.77827148437507 63.98671875 134.56621093750005 64.7945556640625Q135.35415039062505 65.602392578125 135.35415039062505 66.955419921875ZM130.31611328125007 66.493798828125H133.69072265625005Q133.65092773437505 65.793408203125 133.52358398437505 65.506884765625Q133.32460937500005 65.061181640625 132.93063964843753 64.806494140625Q132.53666992187505 64.551806640625 132.10688476562507 64.551806640625Q131.44628906250006 64.551806640625 130.92497558593755 65.0651611328125Q130.40366210937506 65.578515625 130.31611328125007 66.493798828125ZM138.45815429687505 63.994677734375V65.634228515625Q139.37343750000005 63.994677734375 140.33647460937507 63.994677734375Q140.77421875000007 63.994677734375 141.06074218750007 64.26130371093751Q141.34726562500006 64.5279296875 141.34726562500006 64.878125Q141.34726562500006 65.188525390625 141.14033203125007 65.40341796875Q140.93339843750007 65.618310546875 140.64687500000005 65.618310546875Q140.36831054687505 65.618310546875 140.02209472656256 65.3437255859375Q139.67587890625006 65.069140625 139.50874023437507 65.069140625Q139.36547851562506 65.069140625 139.19833984375006 65.2283203125Q138.84018554687506 65.554638671875 138.45815429687505 66.302783203125V69.79677734375Q138.45815429687505 70.40166015625 138.60937500000006 70.712060546875Q138.71284179687507 70.926953125 138.97548828125008 71.07021484375Q139.23813476562506 71.2134765625 139.73159179687505 71.2134765625V71.5H135.99882812500007V71.2134765625Q136.55595703125007 71.2134765625 136.82656250000005 71.03837890625Q137.02553710937505 70.91103515625 137.10512695312505 70.632470703125Q137.14492187500005 70.49716796875 137.14492187500005 69.86044921875V67.035009765625Q137.14492187500005 65.761572265625 137.09318847656255 65.5188232421875Q137.04145507812507 65.27607421875 136.90217285156257 65.1646484375Q136.76289062500007 65.05322265625 136.55595703125007 65.05322265625Q136.30922851562505 65.05322265625 135.99882812500007 65.172607421875L135.91923828125007 64.886083984375L138.12387695312506 63.994677734375ZM144.60249023437504 64.7826171875V69.57392578125Q144.60249023437504 70.59267578125 144.82534179687505 70.86328125Q145.11982421875004 71.2134765625 145.61328125000006 71.2134765625H146.27387695312504V71.5H141.92031250000005V71.2134765625H142.24663085937505Q142.56499023437505 71.2134765625 142.82763671875006 71.054296875Q143.09028320312504 70.8951171875 143.18977050781254 70.62451171875Q143.28925781250004 70.35390625 143.28925781250004 69.57392578125V64.7826171875H141.87255859375006V64.2095703125H143.28925781250004V63.73203125Q143.28925781250004 62.641650390625 143.63945312500005 61.885546875Q143.98964843750005 61.129443359375 144.70993652343753 60.6638427734375Q145.43022460937505 60.1982421875 146.32958984375006 60.1982421875Q147.16528320312506 60.1982421875 147.86567382812504 60.739453125Q148.32729492187505 61.097607421875 148.32729492187505 61.543310546875Q148.32729492187505 61.782080078125 148.12036132812506 61.9929931640625Q147.91342773437506 62.20390625 147.67465820312506 62.20390625Q147.49160156250005 62.20390625 147.28864746093757 62.0725830078125Q147.08569335937506 61.941259765625 146.79121093750007 61.5074951171875Q146.49672851562505 61.07373046875 146.25000000000006 60.922509765625Q146.00327148437506 60.7712890625 145.70083007812505 60.7712890625Q145.33471679687506 60.7712890625 145.08002929687507 60.966284179687506Q144.82534179687505 61.161279296875 144.71391601562505 61.5711669921875Q144.60249023437504 61.9810546875 144.60249023437504 63.68427734375V64.2095703125H146.48081054687506V64.7826171875ZM151.31191406250005 70.4494140625Q150.18969726562503 71.316943359375 149.90317382812503 71.45224609375Q149.47338867187503 71.651220703125 148.98789062500003 71.651220703125Q148.23178710937503 71.651220703125 147.74230957031256 71.13388671875Q147.25283203125005 70.616552734375 147.25283203125005 69.772900390625Q147.25283203125005 69.2396484375 147.49160156250005 68.849658203125Q147.81791992187505 68.308447265625 148.62575683593752 67.830908203125Q149.43359375000003 67.353369140625 151.31191406250005 66.668896484375V66.382373046875Q151.31191406250005 65.2919921875 150.96569824218756 64.886083984375Q150.61948242187503 64.48017578125 149.95888671875005 64.48017578125Q149.45747070312504 64.48017578125 149.16298828125005 64.75078125Q148.86054687500004 65.02138671875 148.86054687500004 65.37158203125L148.87646484375003 65.833203125Q148.87646484375003 66.19931640625 148.68942871093753 66.398291015625Q148.50239257812504 66.597265625 148.19995117187503 66.597265625Q147.90546875000004 66.597265625 147.71843261718755 66.39033203125001Q147.53139648437505 66.1833984375 147.53139648437505 65.825244140625Q147.53139648437505 65.140771484375 148.23178710937503 64.567724609375Q148.93217773437505 63.994677734375 150.19765625000005 63.994677734375Q151.16865234375004 63.994677734375 151.78945312500005 64.32099609375Q152.25903320312503 64.567724609375 152.48188476562504 65.093017578125Q152.62514648437505 65.43525390625 152.62514648437505 66.493798828125V68.96904296875Q152.62514648437505 70.011669921875 152.66494140625005 70.2464599609375Q152.70473632812505 70.48125 152.79626464843756 70.56083984375Q152.88779296875003 70.6404296875 153.00717773437503 70.6404296875Q153.13452148437503 70.6404296875 153.23002929687505 70.584716796875Q153.39716796875004 70.48125 153.87470703125004 70.0037109375V70.4494140625Q152.98330078125005 71.64326171875 152.17148437500003 71.64326171875Q151.78149414062503 71.64326171875 151.55068359375002 71.37265625Q151.31987304687505 71.10205078125 151.31191406250005 70.4494140625ZM151.31191406250005 69.932080078125V67.15439453125Q150.11010742187503 67.63193359375 149.75991210937505 67.830908203125Q149.13115234375005 68.181103515625 148.86054687500004 68.563134765625Q148.58994140625003 68.945166015625 148.58994140625003 69.398828125Q148.58994140625003 69.971875 148.93217773437505 70.3499267578125Q149.27441406250003 70.727978515625 149.72011718750005 70.727978515625Q150.32500000000005 70.727978515625 151.31191406250005 69.932080078125ZM160.60800781250003 68.7302734375Q160.31352539062505 70.170849609375 159.45395507812503 70.9468505859375Q158.59438476562505 71.7228515625 157.55175781250006 71.7228515625Q156.31015625000003 71.7228515625 155.38691406250004 70.68022460937499Q154.46367187500005 69.63759765625 154.46367187500005 67.862744140625Q154.46367187500005 66.143603515625 155.48640136718754 65.069140625Q156.50913085937503 63.994677734375 157.94174804687503 63.994677734375Q159.01621093750003 63.994677734375 159.70864257812502 64.5637451171875Q160.40107421875004 65.1328125 160.40107421875004 65.745654296875Q160.40107421875004 66.048095703125 160.20607910156252 66.2351318359375Q160.01108398437503 66.42216796875 159.66088867187506 66.42216796875Q159.19130859375005 66.42216796875 158.95253906250005 66.1197265625Q158.81723632812503 65.952587890625 158.77346191406252 65.4830078125Q158.72968750000004 65.013427734375 158.45112304687504 64.76669921875Q158.17255859375004 64.5279296875 157.67910156250005 64.5279296875Q156.88320312500005 64.5279296875 156.39770507812506 65.11689453125Q155.75302734375003 65.896875 155.75302734375003 67.178271484375Q155.75302734375003 68.483544921875 156.39372558593755 69.4823974609375Q157.03442382812506 70.48125 158.12480468750005 70.48125Q158.90478515625006 70.48125 159.52558593750004 69.947998046875Q159.96333007812504 69.581884765625 160.37719726562506 68.61884765625ZM162.87631835937506 66.955419921875Q162.86835937500004 68.579052734375 163.66425781250004 69.502294921875Q164.46015625000004 70.425537109375 165.53461914062504 70.425537109375Q166.25092773437504 70.425537109375 166.78020019531255 70.0315673828125Q167.30947265625005 69.63759765625 167.66762695312505 68.68251953125L167.91435546875005 68.84169921875Q167.74721679687505 69.932080078125 166.94335937500006 70.8274658203125Q166.13950195312506 71.7228515625 164.92973632812505 71.7228515625Q163.61650390625005 71.7228515625 162.68132324218755 70.70012207031249Q161.74614257812505 69.677392578125 161.74614257812505 67.95029296875Q161.74614257812505 66.079931640625 162.70520019531256 65.0333251953125Q163.66425781250004 63.98671875 165.11279296875006 63.98671875Q166.33847656250006 63.98671875 167.12641601562507 64.7945556640625Q167.91435546875005 65.602392578125 167.91435546875005 66.955419921875ZM162.87631835937506 66.493798828125H166.25092773437504Q166.21113281250004 65.793408203125 166.08378906250005 65.506884765625Q165.88481445312505 65.061181640625 165.49084472656256 64.806494140625Q165.09687500000004 64.551806640625 164.66708984375006 64.551806640625Q164.00649414062505 64.551806640625 163.48518066406257 65.0651611328125Q162.96386718750006 65.578515625 162.87631835937506 66.493798828125ZM173.59707031250005 63.994677734375V66.477880859375H173.33442382812507Q173.03198242187506 65.30791015625 172.55842285156257 64.886083984375Q172.08486328125005 64.4642578125 171.35263671875006 64.4642578125Q170.79550781250006 64.4642578125 170.45327148437508 64.758740234375Q170.11103515625007 65.05322265625 170.11103515625007 65.411376953125Q170.11103515625007 65.857080078125 170.36572265625006 66.175439453125Q170.61245117187505 66.5017578125 171.36855468750005 66.86787109375L172.53056640625005 67.432958984375Q174.14624023437506 68.2208984375 174.14624023437506 69.51025390625Q174.14624023437506 70.505126953125 173.39411621093757 71.1139892578125Q172.64199218750005 71.7228515625 171.71079101562506 71.7228515625Q171.04223632812506 71.7228515625 170.18266601562505 71.48408203125Q169.92001953125006 71.4044921875 169.75288085937507 71.4044921875Q169.56982421875006 71.4044921875 169.46635742187505 71.61142578125H169.20371093750006V69.008837890625H169.46635742187505Q169.68920898437506 70.123095703125 170.31796875000006 70.68818359375001Q170.94672851562507 71.253271484375 171.72670898437505 71.253271484375Q172.27587890625006 71.253271484375 172.62209472656255 70.9309326171875Q172.96831054687505 70.60859375 172.96831054687505 70.154931640625Q172.96831054687505 69.60576171875 172.58229980468755 69.231689453125Q172.19628906250006 68.8576171875 171.04223632812506 68.2845703125Q169.88818359375006 67.7115234375 169.53002929687506 67.24990234375Q169.17187500000006 66.796240234375 169.17187500000006 66.10380859375Q169.17187500000006 65.204443359375 169.78869628906256 64.59956054687501Q170.40551757812506 63.994677734375 171.38447265625007 63.994677734375Q171.81425781250005 63.994677734375 172.42709960937506 64.177734375Q172.83300781250006 64.297119140625 172.96831054687505 64.297119140625Q173.09565429687507 64.297119140625 173.16728515625005 64.24140625Q173.23891601562505 64.185693359375 173.33442382812507 63.994677734375ZM183.43437500000005 70.4494140625Q182.31215820312502 71.316943359375 182.02563476562503 71.45224609375Q181.59584960937502 71.651220703125 181.11035156250003 71.651220703125Q180.35424804687503 71.651220703125 179.86477050781252 71.13388671875Q179.37529296875005 70.616552734375 179.37529296875005 69.772900390625Q179.37529296875005 69.2396484375 179.61406250000005 68.849658203125Q179.94038085937504 68.308447265625 180.74821777343755 67.830908203125Q181.55605468750002 67.353369140625 183.43437500000005 66.668896484375V66.382373046875Q183.43437500000005 65.2919921875 183.08815917968752 64.886083984375Q182.74194335937503 64.48017578125 182.08134765625005 64.48017578125Q181.57993164062503 64.48017578125 181.28544921875005 64.75078125Q180.98300781250003 65.02138671875 180.98300781250003 65.37158203125L180.99892578125002 65.833203125Q180.99892578125002 66.19931640625 180.81188964843753 66.398291015625Q180.62485351562503 66.597265625 180.32241210937502 66.597265625Q180.02792968750003 66.597265625 179.84089355468754 66.39033203125001Q179.65385742187505 66.1833984375 179.65385742187505 65.825244140625Q179.65385742187505 65.140771484375 180.35424804687506 64.567724609375Q181.05463867187504 63.994677734375 182.32011718750005 63.994677734375Q183.29111328125003 63.994677734375 183.91191406250005 64.32099609375Q184.38149414062502 64.567724609375 184.60434570312503 65.093017578125Q184.74760742187505 65.43525390625 184.74760742187505 66.493798828125V68.96904296875Q184.74760742187505 70.011669921875 184.78740234375005 70.2464599609375Q184.82719726562505 70.48125 184.91872558593752 70.56083984375Q185.01025390625003 70.6404296875 185.12963867187503 70.6404296875Q185.25698242187502 70.6404296875 185.35249023437504 70.584716796875Q185.51962890625003 70.48125 185.99716796875003 70.0037109375V70.4494140625Q185.10576171875005 71.64326171875 184.29394531250003 71.64326171875Q183.90395507812502 71.64326171875 183.67314453125005 71.37265625Q183.44233398437504 71.10205078125 183.43437500000005 70.4494140625ZM183.43437500000005 69.932080078125V67.15439453125Q182.23256835937502 67.63193359375 181.88237304687505 67.830908203125Q181.25361328125004 68.181103515625 180.98300781250003 68.563134765625Q180.71240234375003 68.945166015625 180.71240234375003 69.398828125Q180.71240234375003 69.971875 181.054638671875 70.3499267578125Q181.39687500000002 70.727978515625 181.84257812500005 70.727978515625Q182.44746093750004 70.727978515625 183.43437500000005 69.932080078125ZM188.66342773437503 65.538720703125Q189.94482421875003 63.994677734375 191.10683593750005 63.994677734375Q191.70375976562505 63.994677734375 192.13354492187506 64.2931396484375Q192.56333007812503 64.5916015625 192.81801757812505 65.27607421875Q192.99311523437504 65.75361328125 192.99311523437504 66.74052734375V69.852490234375Q192.99311523437504 70.544921875 193.10454101562505 70.791650390625Q193.19208984375004 70.990625 193.38708496093756 71.10205078125Q193.58208007812505 71.2134765625 194.10737304687504 71.2134765625V71.5H190.50195312500003V71.2134765625H190.65317382812503Q191.16254882812504 71.2134765625 191.36550292968752 71.0582763671875Q191.56845703125003 70.903076171875 191.64804687500003 70.600634765625Q191.67988281250004 70.48125 191.67988281250004 69.852490234375V66.86787109375Q191.67988281250004 65.872998046875 191.42121582031254 65.4233154296875Q191.16254882812504 64.9736328125 190.54970703125005 64.9736328125Q189.60258789062505 64.9736328125 188.66342773437503 66.00830078125V69.852490234375Q188.66342773437503 70.59267578125 188.75097656250003 70.7677734375Q188.86240234375003 70.998583984375 189.05739746093752 71.10603027343751Q189.25239257812504 71.2134765625 189.84931640625004 71.2134765625V71.5H186.24389648437503V71.2134765625H186.40307617187503Q186.96020507812503 71.2134765625 187.15520019531255 70.9309326171875Q187.35019531250003 70.648388671875 187.35019531250003 69.852490234375V67.146435546875Q187.35019531250003 65.833203125 187.29050292968753 65.54667968749999Q187.23081054687503 65.26015625 187.10744628906252 65.156689453125Q186.98408203125004 65.05322265625 186.77714843750005 65.05322265625Q186.55429687500003 65.05322265625 186.24389648437503 65.172607421875L186.12451171875003 64.886083984375L188.32119140625005 63.994677734375H188.66342773437503ZM199.83784179687504 70.680224609375Q199.30458984375005 71.237353515625 198.79521484375005 71.4801025390625Q198.28583984375004 71.7228515625 197.69687500000003 71.7228515625Q196.50302734375003 71.7228515625 195.61162109375005 70.7239990234375Q194.72021484375006 69.725146484375 194.72021484375006 68.1572265625Q194.72021484375006 66.589306640625 195.70712890625003 65.2880126953125Q196.69404296875004 63.98671875 198.24604492187504 63.98671875Q199.20908203125003 63.98671875 199.83784179687504 64.599560546875V63.2544921875Q199.83784179687504 62.004931640625 199.77814941406254 61.718408203125Q199.71845703125004 61.431884765625 199.59111328125005 61.32841796875Q199.46376953125005 61.224951171875 199.27275390625005 61.224951171875Q199.06582031250005 61.224951171875 198.72358398437504 61.352294921875L198.62011718750006 61.07373046875L200.79291992187504 60.18232421875H201.15107421875004V68.610888671875Q201.15107421875004 69.89228515625 201.21076660156254 70.1748291015625Q201.27045898437504 70.457373046875 201.40178222656255 70.56879882812501Q201.53310546875005 70.680224609375 201.70820312500004 70.680224609375Q201.92309570312506 70.680224609375 202.28125000000006 70.544921875L202.36879882812505 70.823486328125L200.20395507812503 71.7228515625H199.83784179687504ZM199.83784179687504 70.123095703125V66.366455078125Q199.79008789062505 65.825244140625 199.55131835937505 65.379541015625Q199.31254882812505 64.933837890625 198.91857910156256 64.7070068359375Q198.52460937500004 64.48017578125 198.15053710937505 64.48017578125Q197.45014648437504 64.48017578125 196.90097656250003 65.108935546875Q196.17670898437504 65.936669921875 196.17670898437504 67.528466796875Q196.17670898437504 69.136181640625 196.87709960937502 69.9917724609375Q197.57749023437503 70.84736328125 198.43706054687505 70.84736328125Q199.16132812500004 70.84736328125 199.83784179687504 70.123095703125ZM209.03046875000004 61.813916015625V64.2095703125H210.73369140625005V64.76669921875H209.03046875000004V69.4943359375Q209.03046875000004 70.202685546875 209.23342285156252 70.44941406250001Q209.43637695312503 70.696142578125 209.75473632812503 70.696142578125Q210.01738281250005 70.696142578125 210.26411132812504 70.5329833984375Q210.51083984375003 70.36982421875 210.64614257812505 70.05146484375H210.95654296875003Q210.67797851562503 70.8314453125 210.16860351562502 71.2254150390625Q209.65922851562505 71.619384765625 209.11801757812503 71.619384765625Q208.75190429687504 71.619384765625 208.40170898437503 71.4164306640625Q208.05151367187503 71.2134765625 207.88437500000003 70.8354248046875Q207.71723632812504 70.457373046875 207.71723632812504 69.66943359375V64.76669921875H206.56318359375004V64.504052734375Q207.00092773437504 64.328955078125 207.45856933593754 63.911108398437506Q207.91621093750004 63.49326171875 208.27436523437504 62.92021484375Q208.45742187500005 62.6177734375 208.78374023437505 61.813916015625ZM213.58300781250006 60.18232421875V65.51484375Q214.46645507812505 64.54384765625 214.98378906250005 64.2692626953125Q215.50112304687505 63.994677734375 216.01845703125005 63.994677734375Q216.63925781250003 63.994677734375 217.08496093750006 64.3369140625Q217.53066406250005 64.679150390625 217.74555664062504 65.411376953125Q217.89677734375005 65.920751953125 217.89677734375005 67.273779296875V69.852490234375Q217.89677734375005 70.544921875 218.00820312500005 70.799609375Q218.08779296875005 70.990625 218.27880859375006 71.10205078125Q218.46982421875003 71.2134765625 218.97919921875004 71.2134765625V71.5H215.39765625000004V71.2134765625H215.56479492187503Q216.07416992187504 71.2134765625 216.27314453125004 71.0582763671875Q216.47211914062504 70.903076171875 216.55170898437504 70.600634765625Q216.57558593750005 70.473291015625 216.57558593750005 69.852490234375V67.273779296875Q216.57558593750005 66.079931640625 216.45222167968757 65.705859375Q216.32885742187506 65.331787109375 216.05825195312505 65.1447509765625Q215.78764648437505 64.95771484375 215.40561523437503 64.95771484375Q215.01562500000006 64.95771484375 214.59379882812505 65.1646484375Q214.17197265625003 65.37158203125 213.58300781250006 66.000341796875V69.852490234375Q213.58300781250006 70.600634765625 213.66657714843757 70.78369140625Q213.75014648437505 70.966748046875 213.97697753906255 71.0901123046875Q214.20380859375004 71.2134765625 214.76093750000004 71.2134765625V71.5H211.14755859375003V71.2134765625Q211.63305664062506 71.2134765625 211.91162109375006 71.062255859375Q212.07080078125006 70.982666015625 212.16630859375005 70.759814453125Q212.26181640625003 70.536962890625 212.26181640625003 69.852490234375V63.2544921875Q212.26181640625003 62.004931640625 212.20212402343753 61.718408203125Q212.14243164062503 61.431884765625 212.01906738281252 61.32841796875Q211.89570312500004 61.224951171875 211.68876953125005 61.224951171875Q211.52163085937505 61.224951171875 211.14755859375003 61.352294921875L211.03613281250006 61.07373046875L213.21689453125003 60.18232421875ZM220.81772460937506 66.955419921875Q220.80976562500004 68.579052734375 221.60566406250004 69.502294921875Q222.40156250000004 70.425537109375 223.47602539062504 70.425537109375Q224.19233398437504 70.425537109375 224.72160644531255 70.0315673828125Q225.25087890625005 69.63759765625 225.60903320312505 68.68251953125L225.85576171875005 68.84169921875Q225.68862304687505 69.932080078125 224.88476562500006 70.8274658203125Q224.08090820312506 71.7228515625 222.87114257812505 71.7228515625Q221.55791015625005 71.7228515625 220.62272949218755 70.70012207031249Q219.68754882812505 69.677392578125 219.68754882812505 67.95029296875Q219.68754882812505 66.079931640625 220.64660644531256 65.0333251953125Q221.60566406250004 63.98671875 223.05419921875006 63.98671875Q224.27988281250006 63.98671875 225.06782226562507 64.7945556640625Q225.85576171875005 65.602392578125 225.85576171875005 66.955419921875ZM220.81772460937506 66.493798828125H224.19233398437504Q224.15253906250004 65.793408203125 224.02519531250005 65.506884765625Q223.82622070312505 65.061181640625 223.43225097656256 64.806494140625Q223.03828125000004 64.551806640625 222.60849609375006 64.551806640625Q221.94790039062505 64.551806640625 221.42658691406257 65.0651611328125Q220.90527343750006 65.578515625 220.81772460937506 66.493798828125ZM237.86586914062505 60.460888671875V64.19365234375H237.57138671875003Q237.42812500000005 63.119189453125 237.05803222656255 62.482470703125Q236.68793945312504 61.845751953125 236.00346679687505 61.4716796875Q235.31899414062505 61.097607421875 234.58676757812503 61.097607421875Q233.75903320312506 61.097607421875 233.21782226562505 61.6030029296875Q232.67661132812503 62.1083984375 232.67661132812503 62.753076171875Q232.67661132812503 63.246533203125 233.01884765625005 63.65244140625Q233.51230468750003 64.249365234375 235.36674804687505 65.24423828125Q236.87895507812505 66.0560546875 237.43210449218753 66.4898193359375Q237.98525390625005 66.923583984375 238.28371582031255 67.512548828125Q238.58217773437505 68.101513671875 238.58217773437505 68.74619140625Q238.58217773437505 69.971875 237.63107910156253 70.85930175781249Q236.67998046875005 71.746728515625 235.18369140625003 71.746728515625Q234.71411132812506 71.746728515625 234.30024414062504 71.67509765625Q234.05351562500005 71.635302734375 233.27751464843755 71.38459472656251Q232.50151367187505 71.13388671875 232.29458007812505 71.13388671875Q232.09560546875005 71.13388671875 231.98020019531253 71.253271484375Q231.86479492187505 71.37265625 231.80908203125006 71.746728515625H231.51459960937504V68.04580078125H231.80908203125006Q232.01601562500005 69.2078125 232.36621093750006 69.7848388671875Q232.71640625000003 70.361865234375 233.43669433593755 70.743896484375Q234.15698242187506 71.125927734375 235.01655273437504 71.125927734375Q236.01142578125004 71.125927734375 236.58845214843754 70.60063476562499Q237.16547851562504 70.075341796875 237.16547851562504 69.359033203125Q237.16547851562504 68.961083984375 236.94660644531254 68.55517578125Q236.72773437500004 68.149267578125 236.26611328125006 67.799072265625Q235.95571289062505 67.560302734375 234.57084960937505 66.7843017578125Q233.18598632812504 66.00830078125 232.60100097656255 65.5466796875Q232.01601562500005 65.08505859375 231.71357421875007 64.5279296875Q231.41113281250006 63.97080078125 231.41113281250006 63.30224609375Q231.41113281250006 62.140234375 232.30253906250005 61.300561523437494Q233.19394531250003 60.460888671875 234.57084960937505 60.460888671875Q235.43041992187506 60.460888671875 236.39345703125005 60.88271484375Q236.83916015625005 61.081689453125 237.02221679687506 61.081689453125Q237.22915039062505 61.081689453125 237.36047363281256 60.9583251953125Q237.49179687500003 60.8349609375 237.57138671875003 60.460888671875ZM239.55317382812504 64.2095703125H242.95166015625006V64.504052734375H242.78452148437506Q242.42636718750006 64.504052734375 242.24729003906256 64.6592529296875Q242.06821289062506 64.814453125 242.06821289062506 65.045263671875Q242.06821289062506 65.3556640625 242.33085937500005 65.904833984375L244.10571289062506 69.581884765625L245.73730468750006 65.554638671875Q245.87260742187505 65.2283203125 245.87260742187505 64.9099609375Q245.87260742187505 64.76669921875 245.81689453125006 64.695068359375Q245.75322265625005 64.60751953125 245.61791992187506 64.5557861328125Q245.48261718750004 64.504052734375 245.14038085937506 64.504052734375V64.2095703125H247.51215820312504V64.504052734375Q247.21767578125005 64.535888671875 247.05849609375005 64.631396484375Q246.89931640625005 64.726904296875 246.70830078125005 64.98955078125Q246.63666992187504 65.1009765625 246.43769531250004 65.602392578125L243.46899414062506 72.876904296875Q243.03920898437505 73.93544921875 242.34279785156255 74.47666015625Q241.64638671875005 75.01787109375 241.00170898437506 75.01787109375Q240.53212890625005 75.01787109375 240.22968750000007 74.74726562500001Q239.92724609375006 74.47666015625 239.92724609375006 74.12646484375Q239.92724609375006 73.7921875 240.14611816406256 73.5892333984375Q240.36499023437506 73.386279296875 240.74702148437504 73.386279296875Q241.00966796875005 73.386279296875 241.46333007812504 73.561376953125Q241.78168945312504 73.68076171875 241.86127929687504 73.68076171875Q242.10004882812504 73.68076171875 242.38259277343755 73.43403320312501Q242.66513671875006 73.1873046875 242.95166015625006 72.478955078125L243.46899414062506 71.2134765625L240.85048828125005 65.713818359375Q240.73110351562505 65.46708984375 240.46845703125004 65.1009765625Q240.26948242187504 64.822412109375 240.14213867187505 64.726904296875Q239.95908203125006 64.599560546875 239.55317382812504 64.504052734375ZM252.82875976562505 63.994677734375V66.477880859375H252.56611328125007Q252.26367187500006 65.30791015625 251.79011230468757 64.886083984375Q251.31655273437505 64.4642578125 250.58432617187506 64.4642578125Q250.02719726562506 64.4642578125 249.68496093750008 64.758740234375Q249.34272460937507 65.05322265625 249.34272460937507 65.411376953125Q249.34272460937507 65.857080078125 249.59741210937506 66.175439453125Q249.84414062500005 66.5017578125 250.60024414062505 66.86787109375L251.76225585937505 67.432958984375Q253.37792968750006 68.2208984375 253.37792968750006 69.51025390625Q253.37792968750006 70.505126953125 252.62580566406257 71.1139892578125Q251.87368164062505 71.7228515625 250.94248046875006 71.7228515625Q250.27392578125006 71.7228515625 249.41435546875005 71.48408203125Q249.15170898437506 71.4044921875 248.98457031250007 71.4044921875Q248.80151367187506 71.4044921875 248.69804687500005 71.61142578125H248.43540039062506V69.008837890625H248.69804687500005Q248.92089843750006 70.123095703125 249.54965820312506 70.68818359375001Q250.17841796875007 71.253271484375 250.95839843750005 71.253271484375Q251.50756835937506 71.253271484375 251.85378417968755 70.9309326171875Q252.20000000000005 70.60859375 252.20000000000005 70.154931640625Q252.20000000000005 69.60576171875 251.81398925781255 69.231689453125Q251.42797851562506 68.8576171875 250.27392578125006 68.2845703125Q249.11987304687506 67.7115234375 248.76171875000006 67.24990234375Q248.40356445312506 66.796240234375 248.40356445312506 66.10380859375Q248.40356445312506 65.204443359375 249.02038574218756 64.59956054687501Q249.63720703125006 63.994677734375 250.61616210937507 63.994677734375Q251.04594726562505 63.994677734375 251.65878906250006 64.177734375Q252.06469726562506 64.297119140625 252.20000000000005 64.297119140625Q252.32734375000007 64.297119140625 252.39897460937505 64.24140625Q252.47060546875005 64.185693359375 252.56611328125007 63.994677734375ZM256.57744140625005 61.813916015625V64.2095703125H258.2806640625V64.76669921875H256.57744140625005V69.4943359375Q256.57744140625005 70.202685546875 256.78039550781256 70.44941406250001Q256.98334960937507 70.696142578125 257.30170898437507 70.696142578125Q257.56435546875 70.696142578125 257.81108398437505 70.5329833984375Q258.05781250000007 70.36982421875 258.19311523437506 70.05146484375H258.50351562500003Q258.22495117187503 70.8314453125 257.715576171875 71.2254150390625Q257.206201171875 71.619384765625 256.66499023437507 71.619384765625Q256.29887695312505 71.619384765625 255.94868164062504 71.4164306640625Q255.59848632812503 71.2134765625 255.43134765625004 70.8354248046875Q255.26420898437505 70.457373046875 255.26420898437505 69.66943359375V64.76669921875H254.11015625000005V64.504052734375Q254.54790039062505 64.328955078125 255.00554199218755 63.911108398437506Q255.46318359375005 63.49326171875 255.82133789062505 62.92021484375Q256.00439453125006 62.6177734375 256.330712890625 61.813916015625ZM260.21469726562503 66.955419921875Q260.20673828125 68.579052734375 261.00263671875 69.502294921875Q261.79853515625 70.425537109375 262.872998046875 70.425537109375Q263.589306640625 70.425537109375 264.11857910156255 70.0315673828125Q264.6478515625 69.63759765625 265.006005859375 68.68251953125L265.25273437500005 68.84169921875Q265.085595703125 69.932080078125 264.28173828125 70.8274658203125Q263.47788085937503 71.7228515625 262.26811523437505 71.7228515625Q260.95488281250005 71.7228515625 260.01970214843755 70.70012207031249Q259.08452148437505 69.677392578125 259.08452148437505 67.95029296875Q259.08452148437505 66.079931640625 260.0435791015625 65.0333251953125Q261.00263671875 63.98671875 262.451171875 63.98671875Q263.67685546875003 63.98671875 264.46479492187507 64.7945556640625Q265.25273437500005 65.602392578125 265.25273437500005 66.955419921875ZM260.21469726562503 66.493798828125H263.589306640625Q263.54951171875 65.793408203125 263.42216796875005 65.506884765625Q263.22319335937505 65.061181640625 262.8292236328125 64.806494140625Q262.43525390625 64.551806640625 262.00546875000003 64.551806640625Q261.344873046875 64.551806640625 260.8235595703125 65.0651611328125Q260.30224609375 65.578515625 260.21469726562503 66.493798828125ZM268.38857421875 65.5466796875Q269.18447265625 64.75078125 269.327734375 64.631396484375Q269.685888671875 64.328955078125 270.099755859375 64.16181640625001Q270.513623046875 63.994677734375 270.91953125 63.994677734375Q271.60400390625 63.994677734375 272.0974609375 64.392626953125Q272.59091796875 64.790576171875 272.758056640625 65.5466796875Q273.57783203125 64.5916015625 274.142919921875 64.2931396484375Q274.7080078125 63.994677734375 275.304931640625 63.994677734375Q275.8859375 63.994677734375 276.33562011718755 64.2931396484375Q276.785302734375 64.5916015625 277.04794921875 65.268115234375Q277.223046875 65.729736328125 277.223046875 66.716650390625V69.852490234375Q277.223046875 70.536962890625 277.326513671875 70.791650390625Q277.406103515625 70.966748046875 277.62099609375 71.0901123046875Q277.835888671875 71.2134765625 278.32138671875 71.2134765625V71.5H274.72392578125V71.2134765625H274.875146484375Q275.3447265625 71.2134765625 275.607373046875 71.030419921875Q275.7904296875 70.903076171875 275.87001953125 70.62451171875Q275.90185546875 70.489208984375 275.90185546875 69.852490234375V66.716650390625Q275.90185546875 65.825244140625 275.686962890625 65.459130859375Q275.3765625 64.949755859375 274.69208984375 64.949755859375Q274.270263671875 64.949755859375 273.8444580078125 65.1606689453125Q273.41865234375 65.37158203125 272.81376953125 65.94462890625L272.7978515625 66.032177734375L272.81376953125 66.3744140625V69.852490234375Q272.81376953125 70.600634765625 272.8973388671875 70.78369140625Q272.980908203125 70.966748046875 273.21171875000005 71.0901123046875Q273.442529296875 71.2134765625 273.999658203125 71.2134765625V71.5H270.3146484375V71.2134765625Q270.91953125 71.2134765625 271.1463623046875 71.07021484375Q271.373193359375 70.926953125 271.4607421875 70.6404296875Q271.500537109375 70.505126953125 271.500537109375 69.852490234375V66.716650390625Q271.500537109375 65.825244140625 271.237890625 65.43525390625Q270.8876953125 64.92587890625 270.258935546875 64.92587890625Q269.829150390625 64.92587890625 269.40732421875 65.156689453125Q268.746728515625 65.506884765625 268.38857421875 65.94462890625V69.852490234375Q268.38857421875 70.568798828125 268.4880615234375 70.78369140625Q268.587548828125 70.998583984375 268.7825439453125 71.10603027343751Q268.9775390625 71.2134765625 269.574462890625 71.2134765625V71.5H265.96904296875V71.2134765625Q266.470458984375 71.2134765625 266.66943359375 71.10603027343751Q266.868408203125 70.998583984375 266.971875 70.7637939453125Q267.075341796875 70.52900390625 267.075341796875 69.852490234375V67.066845703125Q267.075341796875 65.8650390625 267.0037109375 65.51484375Q266.947998046875 65.252197265625 266.82861328125 65.1527099609375Q266.709228515625 65.05322265625 266.502294921875 65.05322265625Q266.279443359375 65.05322265625 265.96904296875 65.172607421875L265.849658203125 64.886083984375L268.046337890625 63.994677734375H268.38857421875ZM283.61411132812503 63.994677734375V66.477880859375H283.35146484375Q283.0490234375 65.30791015625 282.5754638671875 64.886083984375Q282.10190429687503 64.4642578125 281.369677734375 64.4642578125Q280.812548828125 64.4642578125 280.4703125 64.758740234375Q280.128076171875 65.05322265625 280.128076171875 65.411376953125Q280.128076171875 65.857080078125 280.382763671875 66.175439453125Q280.62949218750003 66.5017578125 281.38559570312503 66.86787109375L282.547607421875 67.432958984375Q284.16328125 68.2208984375 284.16328125 69.51025390625Q284.16328125 70.505126953125 283.4111572265625 71.1139892578125Q282.65903320312503 71.7228515625 281.72783203125 71.7228515625Q281.05927734375 71.7228515625 280.19970703125 71.48408203125Q279.937060546875 71.4044921875 279.769921875 71.4044921875Q279.586865234375 71.4044921875 279.4833984375 71.61142578125H279.220751953125V69.008837890625H279.4833984375Q279.70625 70.123095703125 280.33500976562505 70.68818359375001Q280.96376953125 71.253271484375 281.74375000000003 71.253271484375Q282.292919921875 71.253271484375 282.6391357421875 70.9309326171875Q282.9853515625 70.60859375 282.9853515625 70.154931640625Q282.9853515625 69.60576171875 282.5993408203125 69.231689453125Q282.213330078125 68.8576171875 281.05927734375 68.2845703125Q279.905224609375 67.7115234375 279.5470703125 67.24990234375Q279.188916015625 66.796240234375 279.188916015625 66.10380859375Q279.188916015625 65.204443359375 279.8057373046875 64.59956054687501Q280.42255859375 63.994677734375 281.401513671875 63.994677734375Q281.831298828125 63.994677734375 282.444140625 64.177734375Q282.850048828125 64.297119140625 282.9853515625 64.297119140625Q283.1126953125 64.297119140625 283.184326171875 64.24140625Q283.25595703125003 64.185693359375 283.35146484375 63.994677734375ZM296.34052734375 65.9923828125Q297.462744140625 66.23115234375 298.019873046875 66.7564453125Q298.79189453124997 67.488671875 298.79189453124997 68.547216796875Q298.79189453124997 69.35107421875 298.28251953125 70.0872802734375Q297.77314453125 70.823486328125 296.8857177734375 71.1617431640625Q295.998291015625 71.5 294.17568359374997 71.5H289.08193359374997V71.205517578125H289.487841796875Q290.16435546875 71.205517578125 290.458837890625 70.775732421875Q290.64189453125 70.49716796875 290.64189453125 69.58984375V62.6177734375Q290.64189453125 61.61494140625 290.411083984375 61.352294921875Q290.10068359375 61.002099609375 289.487841796875 61.002099609375H289.08193359374997V60.7076171875H293.7458984375Q295.05117187499997 60.7076171875 295.839111328125 60.8986328125Q297.032958984375 61.18515625 297.66171875 61.9134033203125Q298.290478515625 62.641650390625 298.290478515625 63.58876953125Q298.290478515625 64.4005859375 297.797021484375 65.0412841796875Q297.303564453125 65.681982421875 296.34052734375 65.9923828125ZM292.17001953125 65.56259765625Q292.46450195312497 65.618310546875 292.84255371093747 65.64616699218749Q293.22060546874997 65.6740234375 293.674267578125 65.6740234375Q294.836279296875 65.6740234375 295.4212646484375 65.4233154296875Q296.00624999999997 65.172607421875 296.316650390625 64.6552734375Q296.62705078125 64.137939453125 296.62705078125 63.52509765625Q296.62705078125 62.577978515625 295.855029296875 61.909423828125Q295.0830078125 61.240869140625 293.60263671875 61.240869140625Q292.80673828125 61.240869140625 292.17001953125 61.415966796875ZM292.17001953125 70.72001953125Q293.09326171875 70.934912109375 293.992626953125 70.934912109375Q295.433203125 70.934912109375 296.189306640625 70.2862548828125Q296.94541015625 69.63759765625 296.94541015625 68.68251953125Q296.94541015625 68.053759765625 296.603173828125 67.47275390625Q296.2609375 66.891748046875 295.488916015625 66.557470703125Q294.71689453125 66.223193359375 293.57875976562497 66.223193359375Q293.085302734375 66.223193359375 292.735107421875 66.239111328125Q292.38491210937497 66.255029296875 292.17001953125 66.29482421875ZM301.418359375 66.955419921875Q301.410400390625 68.579052734375 302.206298828125 69.502294921875Q303.002197265625 70.425537109375 304.07666015625 70.425537109375Q304.79296875 70.425537109375 305.3222412109375 70.0315673828125Q305.851513671875 69.63759765625 306.20966796875 68.68251953125L306.45639648437503 68.84169921875Q306.2892578125 69.932080078125 305.48540039062505 70.8274658203125Q304.68154296875 71.7228515625 303.47177734375003 71.7228515625Q302.15854492187503 71.7228515625 301.22336425781253 70.70012207031249Q300.28818359375003 69.677392578125 300.28818359375003 67.95029296875Q300.28818359375003 66.079931640625 301.24724121093755 65.0333251953125Q302.206298828125 63.98671875 303.654833984375 63.98671875Q304.880517578125 63.98671875 305.66845703125 64.7945556640625Q306.45639648437503 65.602392578125 306.45639648437503 66.955419921875ZM301.418359375 66.493798828125H304.79296875Q304.753173828125 65.793408203125 304.62583007812503 65.506884765625Q304.42685546875003 65.061181640625 304.03288574218755 64.806494140625Q303.638916015625 64.551806640625 303.209130859375 64.551806640625Q302.54853515625 64.551806640625 302.0272216796875 65.0651611328125Q301.505908203125 65.578515625 301.418359375 66.493798828125ZM309.568359375 60.18232421875V65.51484375Q310.45180664062497 64.54384765625 310.96914062499997 64.2692626953125Q311.48647460937497 63.994677734375 312.00380859374997 63.994677734375Q312.624609375 63.994677734375 313.0703125 64.3369140625Q313.51601562499997 64.679150390625 313.730908203125 65.411376953125Q313.88212890625 65.920751953125 313.88212890625 67.273779296875V69.852490234375Q313.88212890625 70.544921875 313.99355468749997 70.799609375Q314.07314453124997 70.990625 314.26416015625 71.10205078125Q314.45517578125 71.2134765625 314.96455078125 71.2134765625V71.5H311.3830078125V71.2134765625H311.550146484375Q312.059521484375 71.2134765625 312.25849609375 71.0582763671875Q312.457470703125 70.903076171875 312.537060546875 70.600634765625Q312.56093749999997 70.473291015625 312.56093749999997 69.852490234375V67.273779296875Q312.56093749999997 66.079931640625 312.43757324218745 65.705859375Q312.314208984375 65.331787109375 312.043603515625 65.1447509765625Q311.772998046875 64.95771484375 311.390966796875 64.95771484375Q311.0009765625 64.95771484375 310.579150390625 65.1646484375Q310.15732421875 65.37158203125 309.568359375 66.000341796875V69.852490234375Q309.568359375 70.600634765625 309.65192871093745 70.78369140625Q309.73549804687497 70.966748046875 309.9623291015625 71.0901123046875Q310.18916015625 71.2134765625 310.7462890625 71.2134765625V71.5H307.13291015625V71.2134765625Q307.618408203125 71.2134765625 307.89697265625 71.062255859375Q308.05615234375 70.982666015625 308.15166015625 70.759814453125Q308.24716796875 70.536962890625 308.24716796875 69.852490234375V63.2544921875Q308.24716796875 62.004931640625 308.1874755859375 61.718408203125Q308.127783203125 61.431884765625 308.0044189453125 61.32841796875Q307.8810546875 61.224951171875 307.67412109375 61.224951171875Q307.50698242187497 61.224951171875 307.13291015625 61.352294921875L307.021484375 61.07373046875L309.20224609375 60.18232421875ZM317.43183593749995 60.18232421875Q317.76611328124994 60.18232421875 318.00090332031243 60.4171142578125Q318.235693359375 60.651904296875 318.235693359375 60.986181640625Q318.235693359375 61.320458984375 318.00090332031243 61.559228515625Q317.76611328124994 61.797998046875 317.43183593749995 61.797998046875Q317.09755859374997 61.797998046875 316.85878906249997 61.559228515625Q316.62001953124997 61.320458984375 316.62001953124997 60.986181640625Q316.62001953124997 60.651904296875 316.85480957031245 60.4171142578125Q317.08959960937494 60.18232421875 317.43183593749995 60.18232421875ZM318.09243164062497 63.994677734375V69.852490234375Q318.09243164062497 70.536962890625 318.19191894531247 70.7637939453125Q318.29140624999997 70.990625 318.48640136718745 71.10205078125Q318.68139648437494 71.2134765625 319.19873046874994 71.2134765625V71.5H315.65698242187494V71.2134765625Q316.190234375 71.2134765625 316.373291015625 71.110009765625Q316.55634765624995 71.00654296875 316.6637939453125 70.7677734375Q316.77124023437494 70.52900390625 316.77124023437494 69.852490234375V67.04296875Q316.77124023437494 65.857080078125 316.69960937499997 65.506884765625Q316.643896484375 65.252197265625 316.52451171875 65.1527099609375Q316.405126953125 65.05322265625 316.19819335937495 65.05322265625Q315.97534179687494 65.05322265625 315.65698242187494 65.172607421875L315.54555664062497 64.886083984375L317.742236328125 63.994677734375ZM322.23110351562497 65.538720703125Q323.51249999999993 63.994677734375 324.67451171874995 63.994677734375Q325.27143554687495 63.994677734375 325.70122070312493 64.2931396484375Q326.13100585937497 64.5916015625 326.38569335937495 65.27607421875Q326.56079101562494 65.75361328125 326.56079101562494 66.74052734375V69.852490234375Q326.56079101562494 70.544921875 326.6722167968749 70.791650390625Q326.75976562499994 70.990625 326.95476074218743 71.10205078125Q327.1497558593749 71.2134765625 327.67504882812494 71.2134765625V71.5H324.06962890624993V71.2134765625H324.22084960937497Q324.73022460937494 71.2134765625 324.93317871093745 71.0582763671875Q325.13613281249997 70.903076171875 325.21572265624997 70.600634765625Q325.24755859374994 70.48125 325.24755859374994 69.852490234375V66.86787109375Q325.24755859374994 65.872998046875 324.98889160156244 65.4233154296875Q324.73022460937494 64.9736328125 324.11738281249995 64.9736328125Q323.1702636718749 64.9736328125 322.23110351562497 66.00830078125V69.852490234375Q322.23110351562497 70.59267578125 322.31865234374993 70.7677734375Q322.43007812499997 70.998583984375 322.62507324218745 71.10603027343751Q322.82006835937494 71.2134765625 323.41699218749994 71.2134765625V71.5H319.81157226562493V71.2134765625H319.97075195312493Q320.52788085937493 71.2134765625 320.7228759765625 70.9309326171875Q320.91787109374997 70.648388671875 320.91787109374997 69.852490234375V67.146435546875Q320.91787109374997 65.833203125 320.85817871093747 65.54667968749999Q320.79848632812497 65.26015625 320.67512207031245 65.156689453125Q320.55175781249994 65.05322265625 320.3448242187499 65.05322265625Q320.12197265624997 65.05322265625 319.81157226562493 65.172607421875L319.69218749999993 64.886083984375L321.88886718749995 63.994677734375H322.23110351562497ZM333.40551757812494 70.680224609375Q332.8722656249999 71.237353515625 332.3628906249999 71.4801025390625Q331.85351562499994 71.7228515625 331.2645507812499 71.7228515625Q330.0707031249999 71.7228515625 329.1792968749999 70.7239990234375Q328.28789062499993 69.725146484375 328.28789062499993 68.1572265625Q328.28789062499993 66.589306640625 329.2748046874999 65.2880126953125Q330.26171874999994 63.98671875 331.81372070312494 63.98671875Q332.7767578124999 63.98671875 333.40551757812494 64.599560546875V63.2544921875Q333.40551757812494 62.004931640625 333.34582519531244 61.718408203125Q333.28613281249994 61.431884765625 333.1587890624999 61.32841796875Q333.0314453124999 61.224951171875 332.8404296874999 61.224951171875Q332.6334960937499 61.224951171875 332.29125976562494 61.352294921875L332.18779296874993 61.07373046875L334.36059570312494 60.18232421875H334.71874999999994V68.610888671875Q334.71874999999994 69.89228515625 334.77844238281244 70.1748291015625Q334.83813476562494 70.457373046875 334.9694580078124 70.56879882812501Q335.1007812499999 70.680224609375 335.27587890624994 70.680224609375Q335.49077148437493 70.680224609375 335.84892578124993 70.544921875L335.9364746093749 70.823486328125L333.7716308593749 71.7228515625H333.40551757812494ZM333.40551757812494 70.123095703125V66.366455078125Q333.3577636718749 65.825244140625 333.1189941406249 65.379541015625Q332.8802246093749 64.933837890625 332.48625488281243 64.7070068359375Q332.09228515624994 64.48017578125 331.7182128906249 64.48017578125Q331.01782226562494 64.48017578125 330.4686523437499 65.108935546875Q329.74438476562494 65.936669921875 329.74438476562494 67.528466796875Q329.74438476562494 69.136181640625 330.44477539062495 69.9917724609375Q331.1451660156249 70.84736328125 332.0047363281249 70.84736328125Q332.72900390624994 70.84736328125 333.40551757812494 70.123095703125ZM349.1085937499999 60.7076171875 349.2279785156249 63.23857421875H348.9255371093749Q348.8379882812499 62.57001953125 348.6867675781249 62.28349609375Q348.4400390624999 61.821875 348.0301513671874 61.6030029296875Q347.6202636718749 61.384130859375 346.9517089843749 61.384130859375H345.4315429687499V69.629638671875Q345.4315429687499 70.62451171875 345.6464355468749 70.871240234375Q345.9488769531249 71.205517578125 346.5776367187499 71.205517578125H346.9517089843749V71.5H342.3752929687499V71.205517578125H342.7573242187499Q343.4417968749999 71.205517578125 343.7283203124999 70.791650390625Q343.9034179687499 70.536962890625 343.9034179687499 69.629638671875V61.384130859375H342.6061035156249Q341.8499999999999 61.384130859375 341.5316406249999 61.495556640625Q341.1177734374999 61.64677734375 340.82329101562493 62.0765625Q340.5288085937499 62.50634765625 340.4730957031249 63.23857421875H340.1706542968749L340.2979980468749 60.7076171875ZM352.28422851562493 60.18232421875V65.51484375Q353.1676757812499 64.54384765625 353.6850097656249 64.2692626953125Q354.2023437499999 63.994677734375 354.7196777343749 63.994677734375Q355.3404785156249 63.994677734375 355.78618164062493 64.3369140625Q356.2318847656249 64.679150390625 356.44677734374994 65.411376953125Q356.5979980468749 65.920751953125 356.5979980468749 67.273779296875V69.852490234375Q356.5979980468749 70.544921875 356.7094238281249 70.799609375Q356.7890136718749 70.990625 356.98002929687493 71.10205078125Q357.1710449218749 71.2134765625 357.68041992187494 71.2134765625V71.5H354.09887695312494V71.2134765625H354.2660156249999Q354.77539062499994 71.2134765625 354.97436523437494 71.0582763671875Q355.17333984374994 70.903076171875 355.25292968749994 70.600634765625Q355.2768066406249 70.473291015625 355.2768066406249 69.852490234375V67.273779296875Q355.2768066406249 66.079931640625 355.1534423828124 65.705859375Q355.03007812499993 65.331787109375 354.75947265624995 65.1447509765625Q354.4888671874999 64.95771484375 354.1068359374999 64.95771484375Q353.71684570312493 64.95771484375 353.2950195312499 65.1646484375Q352.8731933593749 65.37158203125 352.28422851562493 66.000341796875V69.852490234375Q352.28422851562493 70.600634765625 352.3677978515624 70.78369140625Q352.4513671874999 70.966748046875 352.6781982421874 71.0901123046875Q352.90502929687494 71.2134765625 353.46215820312494 71.2134765625V71.5H349.8487792968749V71.2134765625Q350.33427734374993 71.2134765625 350.61284179687493 71.062255859375Q350.77202148437493 70.982666015625 350.8675292968749 70.759814453125Q350.9630371093749 70.536962890625 350.9630371093749 69.852490234375V63.2544921875Q350.9630371093749 62.004931640625 350.9033447265624 61.718408203125Q350.8436523437499 61.431884765625 350.72028808593745 61.32841796875Q350.59692382812494 61.224951171875 350.3899902343749 61.224951171875Q350.2228515624999 61.224951171875 349.8487792968749 61.352294921875L349.73735351562493 61.07373046875L351.9181152343749 60.18232421875ZM359.5189453124999 66.955419921875Q359.5109863281249 68.579052734375 360.3068847656249 69.502294921875Q361.1027832031249 70.425537109375 362.1772460937499 70.425537109375Q362.8935546874999 70.425537109375 363.42282714843736 70.0315673828125Q363.9520996093749 69.63759765625 364.3102539062499 68.68251953125L364.5569824218749 68.84169921875Q364.3898437499999 69.932080078125 363.58598632812493 70.8274658203125Q362.7821289062499 71.7228515625 361.5723632812499 71.7228515625Q360.2591308593749 71.7228515625 359.3239501953124 70.70012207031249Q358.3887695312499 69.677392578125 358.3887695312499 67.95029296875Q358.3887695312499 66.079931640625 359.34782714843743 65.0333251953125Q360.3068847656249 63.98671875 361.7554199218749 63.98671875Q362.9811035156249 63.98671875 363.7690429687499 64.7945556640625Q364.5569824218749 65.602392578125 364.5569824218749 66.955419921875ZM359.5189453124999 66.493798828125H362.8935546874999Q362.8537597656249 65.793408203125 362.7264160156249 65.506884765625Q362.5274414062499 65.061181640625 362.13347167968743 64.806494140625Q361.7395019531249 64.551806640625 361.3097167968749 64.551806640625Q360.6491210937499 64.551806640625 360.1278076171874 65.0651611328125Q359.6064941406249 65.578515625 359.5189453124999 66.493798828125ZM367.6928222656249 65.5466796875Q368.4887207031249 64.75078125 368.63198242187485 64.631396484375Q368.99013671874985 64.328955078125 369.40400390624984 64.16181640625001Q369.8178710937499 63.994677734375 370.22377929687485 63.994677734375Q370.9082519531249 63.994677734375 371.40170898437486 64.392626953125Q371.89516601562485 64.790576171875 372.0623046874999 65.5466796875Q372.8820800781249 64.5916015625 373.4471679687499 64.2931396484375Q374.0122558593749 63.994677734375 374.6091796874999 63.994677734375Q375.1901855468749 63.994677734375 375.63986816406236 64.2931396484375Q376.0895507812499 64.5916015625 376.35219726562485 65.268115234375Q376.5272949218749 65.729736328125 376.5272949218749 66.716650390625V69.852490234375Q376.5272949218749 70.536962890625 376.63076171874985 70.791650390625Q376.71035156249985 70.966748046875 376.92524414062484 71.0901123046875Q377.1401367187499 71.2134765625 377.62563476562485 71.2134765625V71.5H374.02817382812486V71.2134765625H374.1793945312499Q374.6489746093749 71.2134765625 374.9116210937499 71.030419921875Q375.0946777343749 70.903076171875 375.1742675781249 70.62451171875Q375.2061035156249 70.489208984375 375.2061035156249 69.852490234375V66.716650390625Q375.2061035156249 65.825244140625 374.9912109374999 65.459130859375Q374.68081054687485 64.949755859375 373.9963378906249 64.949755859375Q373.5745117187499 64.949755859375 373.1487060546874 65.1606689453125Q372.7229003906249 65.37158203125 372.11801757812486 65.94462890625L372.1020996093749 66.032177734375L372.11801757812486 66.3744140625V69.852490234375Q372.11801757812486 70.600634765625 372.2015869140624 70.78369140625Q372.2851562499999 70.966748046875 372.51596679687486 71.0901123046875Q372.7467773437499 71.2134765625 373.3039062499999 71.2134765625V71.5H369.6188964843749V71.2134765625Q370.22377929687485 71.2134765625 370.4506103515624 71.07021484375Q370.6774414062499 70.926953125 370.76499023437486 70.6404296875Q370.80478515624986 70.505126953125 370.80478515624986 69.852490234375V66.716650390625Q370.80478515624986 65.825244140625 370.54213867187485 65.43525390625Q370.1919433593749 64.92587890625 369.5631835937499 64.92587890625Q369.13339843749986 64.92587890625 368.71157226562485 65.156689453125Q368.0509765624999 65.506884765625 367.6928222656249 65.94462890625V69.852490234375Q367.6928222656249 70.568798828125 367.7923095703124 70.78369140625Q367.8917968749999 70.998583984375 368.0867919921874 71.10603027343751Q368.2817871093749 71.2134765625 368.8787109374999 71.2134765625V71.5H365.27329101562486V71.2134765625Q365.7747070312499 71.2134765625 365.9736816406249 71.10603027343751Q366.1726562499999 70.998583984375 366.2761230468749 70.7637939453125Q366.3795898437499 70.52900390625 366.3795898437499 69.852490234375V67.066845703125Q366.3795898437499 65.8650390625 366.30795898437486 65.51484375Q366.2522460937499 65.252197265625 366.1328613281249 65.1527099609375Q366.0134765624999 65.05322265625 365.80654296874985 65.05322265625Q365.5836914062499 65.05322265625 365.27329101562486 65.172607421875L365.15390624999986 64.886083984375L367.3505859374999 63.994677734375H367.6928222656249Z" fill-opacity="0.55"/></g></svg>
